<svg width="75" height="62" viewBox="0 0 75 62" fill="none" xmlns="http://www.w3.org/2000/svg">
<g filter="url(#filter0_d_16049_361)">
<path d="M43.4023 4C41.4944 4.00006 40.116 5.58093 39.1738 7.33691C38.6573 8.29833 36.3428 8.29833 35.8262 7.33691C34.884 5.58093 33.5056 4.00007 31.5977 4H23C20.7909 4 19 2.20914 19 0H56C56 2.20914 54.2091 4 52 4H43.4023Z" fill="url(#paint0_linear_16049_361)"/>
</g>
<path d="M42.75 16.56V15C42.75 14.59 42.41 14.25 42 14.25C41.59 14.25 41.25 14.59 41.25 15V16.5H34.75V15C34.75 14.59 34.41 14.25 34 14.25C33.59 14.25 33.25 14.59 33.25 15V16.56C30.55 16.81 29.24 18.42 29.04 20.81C29.02 21.1 29.26 21.34 29.54 21.34H46.46C46.75 21.34 46.99 21.09 46.96 20.81C46.76 18.42 45.45 16.81 42.75 16.56Z" fill="url(#paint1_linear_16049_361)"/>
<path opacity="0.4" d="M46 22.84C46.55 22.84 47 23.29 47 23.84V30C47 33 45.5 35 42 35H34C30.5 35 29 33 29 30V23.84C29 23.29 29.45 22.84 30 22.84H46Z" fill="url(#paint2_linear_16049_361)"/>
<path d="M34.5 28C34.24 28 33.98 27.89 33.79 27.71C33.61 27.52 33.5 27.26 33.5 27C33.5 26.74 33.61 26.48 33.79 26.29C34.07 26.01 34.51 25.92 34.88 26.08C35.01 26.13 35.12 26.2 35.21 26.29C35.39 26.48 35.5 26.74 35.5 27C35.5 27.26 35.39 27.52 35.21 27.71C35.02 27.89 34.76 28 34.5 28Z" fill="url(#paint3_linear_16049_361)"/>
<path d="M38 28C37.74 28 37.48 27.89 37.29 27.71C37.11 27.52 37 27.26 37 27C37 26.74 37.11 26.48 37.29 26.29C37.38 26.2 37.49 26.13 37.62 26.08C37.99 25.92 38.43 26.01 38.71 26.29C38.89 26.48 39 26.74 39 27C39 27.26 38.89 27.52 38.71 27.71C38.66 27.75 38.61 27.79 38.56 27.83C38.5 27.87 38.44 27.9 38.38 27.92C38.32 27.95 38.26 27.97 38.2 27.98C38.13 27.99 38.07 28 38 28Z" fill="url(#paint4_linear_16049_361)"/>
<path d="M41.5 28C41.24 28 40.98 27.89 40.79 27.71C40.61 27.52 40.5 27.26 40.5 27C40.5 26.74 40.61 26.48 40.79 26.29C40.89 26.2 40.99 26.13 41.12 26.08C41.3 26 41.5 25.98 41.7 26.02C41.76 26.03 41.82 26.05 41.88 26.08C41.94 26.1 42 26.13 42.06 26.17C42.11 26.21 42.16 26.25 42.21 26.29C42.39 26.48 42.5 26.74 42.5 27C42.5 27.26 42.39 27.52 42.21 27.71C42.16 27.75 42.11 27.79 42.06 27.83C42 27.87 41.94 27.9 41.88 27.92C41.82 27.95 41.76 27.97 41.7 27.98C41.63 27.99 41.56 28 41.5 28Z" fill="url(#paint5_linear_16049_361)"/>
<path d="M34.5 31.5C34.37 31.5 34.24 31.47 34.12 31.42C33.99 31.37 33.89 31.3 33.79 31.21C33.61 31.02 33.5 30.76 33.5 30.5C33.5 30.24 33.61 29.98 33.79 29.79C33.89 29.7 33.99 29.63 34.12 29.58C34.3 29.5 34.5 29.48 34.7 29.52C34.76 29.53 34.82 29.55 34.88 29.58C34.94 29.6 35 29.63 35.06 29.67C35.11 29.71 35.16 29.75 35.21 29.79C35.39 29.98 35.5 30.24 35.5 30.5C35.5 30.76 35.39 31.02 35.21 31.21C35.16 31.25 35.11 31.3 35.06 31.33C35 31.37 34.94 31.4 34.88 31.42C34.82 31.45 34.76 31.47 34.7 31.48C34.63 31.49 34.57 31.5 34.5 31.5Z" fill="url(#paint6_linear_16049_361)"/>
<path d="M38 31.4999C37.74 31.4999 37.48 31.3899 37.29 31.2099C37.11 31.0199 37 30.7599 37 30.4999C37 30.2399 37.11 29.98 37.29 29.79C37.66 29.42 38.34 29.42 38.71 29.79C38.89 29.98 39 30.2399 39 30.4999C39 30.7599 38.89 31.0199 38.71 31.2099C38.52 31.3899 38.26 31.4999 38 31.4999Z" fill="url(#paint7_linear_16049_361)"/>
<path d="M41.5 31.4999C41.24 31.4999 40.98 31.3899 40.79 31.2099C40.61 31.0199 40.5 30.7599 40.5 30.4999C40.5 30.2399 40.61 29.98 40.79 29.79C41.16 29.42 41.84 29.42 42.21 29.79C42.39 29.98 42.5 30.2399 42.5 30.4999C42.5 30.7599 42.39 31.0199 42.21 31.2099C42.02 31.3899 41.76 31.4999 41.5 31.4999Z" fill="url(#paint8_linear_16049_361)"/>
<path d="M17.8652 47.7621C18.3372 47.8501 18.7252 48.0861 19.0292 48.4701C19.3332 48.8541 19.4852 49.2941 19.4852 49.7901C19.4852 50.2381 19.3732 50.6341 19.1492 50.9781C18.9332 51.3141 18.6172 51.5781 18.2012 51.7701C17.7852 51.9621 17.2932 52.0581 16.7252 52.0581H13.1132V43.6821H16.5692C17.1372 43.6821 17.6252 43.7741 18.0332 43.9581C18.4492 44.1421 18.7612 44.3981 18.9692 44.7261C19.1852 45.0541 19.2932 45.4261 19.2932 45.8421C19.2932 46.3301 19.1612 46.7381 18.8972 47.0661C18.6412 47.3941 18.2972 47.6261 17.8652 47.7621ZM14.7932 47.1381H16.3292C16.7292 47.1381 17.0372 47.0501 17.2532 46.8741C17.4692 46.6901 17.5772 46.4301 17.5772 46.0941C17.5772 45.7581 17.4692 45.4981 17.2532 45.3141C17.0372 45.1301 16.7292 45.0381 16.3292 45.0381H14.7932V47.1381ZM16.4852 50.6901C16.8932 50.6901 17.2092 50.5941 17.4332 50.4021C17.6652 50.2101 17.7812 49.9381 17.7812 49.5861C17.7812 49.2261 17.6612 48.9461 17.4212 48.7461C17.1812 48.5381 16.8572 48.4341 16.4492 48.4341H14.7932V50.6901H16.4852ZM23.7761 52.1661C23.1361 52.1661 22.5601 52.0261 22.0481 51.7461C21.5361 51.4581 21.1321 51.0541 20.8361 50.5341C20.5481 50.0141 20.4041 49.4141 20.4041 48.7341C20.4041 48.0541 20.5521 47.4541 20.8481 46.9341C21.1521 46.4141 21.5641 46.0141 22.0841 45.7341C22.6041 45.4461 23.1841 45.3021 23.8241 45.3021C24.4641 45.3021 25.0441 45.4461 25.5641 45.7341C26.0841 46.0141 26.4921 46.4141 26.7881 46.9341C27.0921 47.4541 27.2441 48.0541 27.2441 48.7341C27.2441 49.4141 27.0881 50.0141 26.7761 50.5341C26.4721 51.0541 26.0561 51.4581 25.5281 51.7461C25.0081 52.0261 24.4241 52.1661 23.7761 52.1661ZM23.7761 50.7021C24.0801 50.7021 24.3641 50.6301 24.6281 50.4861C24.9001 50.3341 25.1161 50.1101 25.2761 49.8141C25.4361 49.5181 25.5161 49.1581 25.5161 48.7341C25.5161 48.1021 25.3481 47.6181 25.0121 47.2821C24.6841 46.9381 24.2801 46.7661 23.8001 46.7661C23.3201 46.7661 22.9161 46.9381 22.5881 47.2821C22.2681 47.6181 22.1081 48.1021 22.1081 48.7341C22.1081 49.3661 22.2641 49.8541 22.5761 50.1981C22.8961 50.5341 23.2961 50.7021 23.7761 50.7021ZM31.4284 52.1661C30.7884 52.1661 30.2124 52.0261 29.7004 51.7461C29.1884 51.4581 28.7844 51.0541 28.4884 50.5341C28.2004 50.0141 28.0564 49.4141 28.0564 48.7341C28.0564 48.0541 28.2044 47.4541 28.5004 46.9341C28.8044 46.4141 29.2164 46.0141 29.7364 45.7341C30.2564 45.4461 30.8364 45.3021 31.4764 45.3021C32.1164 45.3021 32.6964 45.4461 33.2164 45.7341C33.7364 46.0141 34.1444 46.4141 34.4404 46.9341C34.7444 47.4541 34.8964 48.0541 34.8964 48.7341C34.8964 49.4141 34.7404 50.0141 34.4284 50.5341C34.1244 51.0541 33.7084 51.4581 33.1804 51.7461C32.6604 52.0261 32.0764 52.1661 31.4284 52.1661ZM31.4284 50.7021C31.7324 50.7021 32.0164 50.6301 32.2804 50.4861C32.5524 50.3341 32.7684 50.1101 32.9284 49.8141C33.0884 49.5181 33.1684 49.1581 33.1684 48.7341C33.1684 48.1021 33.0004 47.6181 32.6644 47.2821C32.3364 46.9381 31.9324 46.7661 31.4524 46.7661C30.9724 46.7661 30.5684 46.9381 30.2404 47.2821C29.9204 47.6181 29.7604 48.1021 29.7604 48.7341C29.7604 49.3661 29.9164 49.8541 30.2284 50.1981C30.5484 50.5341 30.9484 50.7021 31.4284 50.7021ZM40.0648 52.0581L37.8088 49.2261V52.0581H36.1288V43.1781H37.8088V48.2301L40.0408 45.4101H42.2248L39.2968 48.7461L42.2488 52.0581H40.0648ZM43.9886 44.6181C43.6926 44.6181 43.4446 44.5261 43.2446 44.3421C43.0526 44.1501 42.9566 43.9141 42.9566 43.6341C42.9566 43.3541 43.0526 43.1221 43.2446 42.9381C43.4446 42.7461 43.6926 42.6501 43.9886 42.6501C44.2846 42.6501 44.5286 42.7461 44.7206 42.9381C44.9206 43.1221 45.0206 43.3541 45.0206 43.6341C45.0206 43.9141 44.9206 44.1501 44.7206 44.3421C44.5286 44.5261 44.2846 44.6181 43.9886 44.6181ZM44.8166 45.4101V52.0581H43.1366V45.4101H44.8166ZM50.1604 45.3141C50.9524 45.3141 51.5924 45.5661 52.0804 46.0701C52.5684 46.5661 52.8124 47.2621 52.8124 48.1581V52.0581H51.1324V48.3861C51.1324 47.8581 51.0004 47.4541 50.7364 47.1741C50.4724 46.8861 50.1124 46.7421 49.6564 46.7421C49.1924 46.7421 48.8244 46.8861 48.5524 47.1741C48.2884 47.4541 48.1564 47.8581 48.1564 48.3861V52.0581H46.4764V45.4101H48.1564V46.2381C48.3804 45.9501 48.6644 45.7261 49.0084 45.5661C49.3604 45.3981 49.7444 45.3141 50.1604 45.3141ZM57.014 45.3021C57.51 45.3021 57.946 45.4021 58.322 45.6021C58.698 45.7941 58.994 46.0461 59.21 46.3581V45.4101H60.902V52.1061C60.902 52.7221 60.778 53.2701 60.53 53.7501C60.282 54.2381 59.91 54.6221 59.414 54.9021C58.918 55.1901 58.318 55.3341 57.614 55.3341C56.67 55.3341 55.894 55.1141 55.286 54.6741C54.686 54.2341 54.346 53.6341 54.266 52.8741H55.934C56.022 53.1781 56.21 53.4181 56.498 53.5941C56.794 53.7781 57.15 53.8701 57.566 53.8701C58.054 53.8701 58.45 53.7221 58.754 53.4261C59.058 53.1381 59.21 52.6981 59.21 52.1061V51.0741C58.994 51.3861 58.694 51.6461 58.31 51.8541C57.934 52.0621 57.502 52.1661 57.014 52.1661C56.454 52.1661 55.942 52.0221 55.478 51.7341C55.014 51.4461 54.646 51.0421 54.374 50.5221C54.11 49.9941 53.978 49.3901 53.978 48.7101C53.978 48.0381 54.11 47.4421 54.374 46.9221C54.646 46.4021 55.01 46.0021 55.466 45.7221C55.93 45.4421 56.446 45.3021 57.014 45.3021ZM59.21 48.7341C59.21 48.3261 59.13 47.9781 58.97 47.6901C58.81 47.3941 58.594 47.1701 58.322 47.0181C58.05 46.8581 57.758 46.7781 57.446 46.7781C57.134 46.7781 56.846 46.8541 56.582 47.0061C56.318 47.1581 56.102 47.3821 55.934 47.6781C55.774 47.9661 55.694 48.3101 55.694 48.7101C55.694 49.1101 55.774 49.4621 55.934 49.7661C56.102 50.0621 56.318 50.2901 56.582 50.4501C56.854 50.6101 57.142 50.6901 57.446 50.6901C57.758 50.6901 58.05 50.6141 58.322 50.4621C58.594 50.3021 58.81 50.0781 58.97 49.7901C59.13 49.4941 59.21 49.1421 59.21 48.7341Z" fill="url(#paint9_linear_16049_361)"/>
<defs>
<filter id="filter0_d_16049_361" x="0" y="-13" width="75" height="46.058" filterUnits="userSpaceOnUse" color-interpolation-filters="sRGB">
<feFlood flood-opacity="0" result="BackgroundImageFix"/>
<feColorMatrix in="SourceAlpha" type="matrix" values="0 0 0 0 0 0 0 0 0 0 0 0 0 0 0 0 0 0 127 0" result="hardAlpha"/>
<feOffset dy="6"/>
<feGaussianBlur stdDeviation="9.5"/>
<feComposite in2="hardAlpha" operator="out"/>
<feColorMatrix type="matrix" values="0 0 0 0 0.105882 0 0 0 0 0.105882 0 0 0 0 0.105882 0 0 0 1 0"/>
<feBlend mode="normal" in2="BackgroundImageFix" result="effect1_dropShadow_16049_361"/>
<feBlend mode="normal" in="SourceGraphic" in2="effect1_dropShadow_16049_361" result="shape"/>
</filter>
<linearGradient id="paint0_linear_16049_361" x1="37.5" y1="0" x2="37.5" y2="8.05809" gradientUnits="userSpaceOnUse">
<stop stop-color="#FDFBFB"/>
<stop offset="0.0001" stop-color="white"/>
<stop offset="1" stop-color="#F4F4F4"/>
</linearGradient>
<linearGradient id="paint1_linear_16049_361" x1="38.0007" y1="14.25" x2="38.0007" y2="21.34" gradientUnits="userSpaceOnUse">
<stop stop-color="#FDFBFB"/>
<stop offset="0.0001" stop-color="white"/>
<stop offset="1" stop-color="#F4F4F4"/>
</linearGradient>
<linearGradient id="paint2_linear_16049_361" x1="38" y1="22.84" x2="38" y2="35" gradientUnits="userSpaceOnUse">
<stop stop-color="#FDFBFB"/>
<stop offset="0.0001" stop-color="white"/>
<stop offset="1" stop-color="#F4F4F4"/>
</linearGradient>
<linearGradient id="paint3_linear_16049_361" x1="34.5" y1="26.0011" x2="34.5" y2="28" gradientUnits="userSpaceOnUse">
<stop stop-color="#FDFBFB"/>
<stop offset="0.0001" stop-color="white"/>
<stop offset="1" stop-color="#F4F4F4"/>
</linearGradient>
<linearGradient id="paint4_linear_16049_361" x1="38" y1="26.0011" x2="38" y2="28" gradientUnits="userSpaceOnUse">
<stop stop-color="#FDFBFB"/>
<stop offset="0.0001" stop-color="white"/>
<stop offset="1" stop-color="#F4F4F4"/>
</linearGradient>
<linearGradient id="paint5_linear_16049_361" x1="41.5" y1="26" x2="41.5" y2="28" gradientUnits="userSpaceOnUse">
<stop stop-color="#FDFBFB"/>
<stop offset="0.0001" stop-color="white"/>
<stop offset="1" stop-color="#F4F4F4"/>
</linearGradient>
<linearGradient id="paint6_linear_16049_361" x1="34.5" y1="29.5" x2="34.5" y2="31.5" gradientUnits="userSpaceOnUse">
<stop stop-color="#FDFBFB"/>
<stop offset="0.0001" stop-color="white"/>
<stop offset="1" stop-color="#F4F4F4"/>
</linearGradient>
<linearGradient id="paint7_linear_16049_361" x1="38" y1="29.5125" x2="38" y2="31.4999" gradientUnits="userSpaceOnUse">
<stop stop-color="#FDFBFB"/>
<stop offset="0.0001" stop-color="white"/>
<stop offset="1" stop-color="#F4F4F4"/>
</linearGradient>
<linearGradient id="paint8_linear_16049_361" x1="41.5" y1="29.5125" x2="41.5" y2="31.4999" gradientUnits="userSpaceOnUse">
<stop stop-color="#FDFBFB"/>
<stop offset="0.0001" stop-color="white"/>
<stop offset="1" stop-color="#F4F4F4"/>
</linearGradient>
<linearGradient id="paint9_linear_16049_361" x1="37" y1="41.0581" x2="37" y2="54.0581" gradientUnits="userSpaceOnUse">
<stop stop-color="#FDFBFB"/>
<stop offset="0.0001" stop-color="white"/>
<stop offset="1" stop-color="#F4F4F4"/>
</linearGradient>
</defs>
</svg>
