<svg width="61" height="48" viewBox="0 0 61 48" fill="none" xmlns="http://www.w3.org/2000/svg">
<path d="M39.3699 7.5145C39.2514 5.54387 37.6059 4 35.624 4H34.6592V3.25C34.6592 3.05109 34.5801 2.86032 34.4395 2.71967C34.2988 2.57902 34.1081 2.5 33.9092 2.5C33.7102 2.5 33.5195 2.57902 33.3788 2.71967C33.2382 2.86032 33.1592 3.05109 33.1592 3.25V4H27.1592V3.25C27.1592 3.05109 27.0801 2.86032 26.9395 2.71967C26.7988 2.57902 26.6081 2.5 26.4092 2.5C26.2102 2.5 26.0195 2.57902 25.8788 2.71967C25.7382 2.86032 25.6592 3.05109 25.6592 3.25V4H24.6943C22.712 4 21.0665 5.54387 20.9484 7.5145C20.726 11.221 20.7302 14.9807 20.9608 18.6891C21.0778 20.5724 22.5864 22.081 24.4697 22.198C26.357 22.3154 28.2579 22.3739 30.1588 22.3739C32.0593 22.3739 33.9605 22.3154 35.8479 22.198C37.7312 22.081 39.2398 20.5724 39.3568 18.6891C39.5878 14.9826 39.5919 11.2232 39.3699 7.5145ZM37.8602 18.5961C37.8254 19.143 37.5925 19.6584 37.205 20.0459C36.8176 20.4333 36.3021 20.6662 35.7553 20.701C32.042 20.9316 28.2763 20.9316 24.563 20.701C24.0162 20.6662 23.5008 20.4333 23.1133 20.0459C22.7258 19.6584 22.4929 19.143 22.4582 18.5961C22.2824 15.7343 22.2427 12.8656 22.3393 10H37.9794C38.0739 12.865 38.0375 15.7461 37.8602 18.5961ZM26.4092 7C26.6081 7 26.7988 6.92098 26.9395 6.78033C27.0801 6.63968 27.1592 6.44891 27.1592 6.25V5.5H33.1592V6.25C33.1592 6.44891 33.2382 6.63968 33.3788 6.78033C33.5195 6.92098 33.7102 7 33.9092 7C34.1081 7 34.2988 6.92098 34.4395 6.78033C34.5801 6.63968 34.6592 6.44891 34.6592 6.25V5.5H35.624C36.8139 5.5 37.8017 6.42437 37.8725 7.60412C37.8902 7.90187 37.8977 8.2015 37.9123 8.5H22.406C22.421 8.2015 22.4282 7.90187 22.4458 7.60412C22.5167 6.42437 23.504 5.5 24.6943 5.5H25.6592V6.25C25.6592 6.44891 25.7382 6.63968 25.8788 6.78033C26.0195 6.92098 26.2102 7 26.4092 7Z" fill="#1B1B1B"/>
<path d="M26.4092 14.5C27.0305 14.5 27.5342 13.9963 27.5342 13.375C27.5342 12.7537 27.0305 12.25 26.4092 12.25C25.7879 12.25 25.2842 12.7537 25.2842 13.375C25.2842 13.9963 25.7879 14.5 26.4092 14.5Z" fill="#1B1B1B"/>
<path d="M30.1592 14.5C30.7805 14.5 31.2842 13.9963 31.2842 13.375C31.2842 12.7537 30.7805 12.25 30.1592 12.25C29.5379 12.25 29.0342 12.7537 29.0342 13.375C29.0342 13.9963 29.5379 14.5 30.1592 14.5Z" fill="#1B1B1B"/>
<path d="M26.4092 18.25C27.0305 18.25 27.5342 17.7463 27.5342 17.125C27.5342 16.5037 27.0305 16 26.4092 16C25.7879 16 25.2842 16.5037 25.2842 17.125C25.2842 17.7463 25.7879 18.25 26.4092 18.25Z" fill="#1B1B1B"/>
<path d="M33.9092 14.5C34.5305 14.5 35.0342 13.9963 35.0342 13.375C35.0342 12.7537 34.5305 12.25 33.9092 12.25C33.2879 12.25 32.7842 12.7537 32.7842 13.375C32.7842 13.9963 33.2879 14.5 33.9092 14.5Z" fill="#1B1B1B"/>
<path d="M33.9092 18.25C34.5305 18.25 35.0342 17.7463 35.0342 17.125C35.0342 16.5037 34.5305 16 33.9092 16C33.2879 16 32.7842 16.5037 32.7842 17.125C32.7842 17.7463 33.2879 18.25 33.9092 18.25Z" fill="#1B1B1B"/>
<path d="M30.1592 18.25C30.7805 18.25 31.2842 17.7463 31.2842 17.125C31.2842 16.5037 30.7805 16 30.1592 16C29.5379 16 29.0342 16.5037 29.0342 17.125C29.0342 17.7463 29.5379 18.25 30.1592 18.25Z" fill="#1B1B1B"/>
<path d="M10.4587 35.692C10.7627 35.74 11.0387 35.864 11.2867 36.064C11.5427 36.264 11.7427 36.512 11.8867 36.808C12.0387 37.104 12.1147 37.42 12.1147 37.756C12.1147 38.18 12.0067 38.564 11.7907 38.908C11.5747 39.244 11.2587 39.512 10.8427 39.712C10.4347 39.904 9.95068 40 9.39068 40H6.27068V31.636H9.27068C9.83868 31.636 10.3227 31.732 10.7227 31.924C11.1227 32.108 11.4227 32.36 11.6227 32.68C11.8227 33 11.9227 33.36 11.9227 33.76C11.9227 34.256 11.7867 34.668 11.5147 34.996C11.2507 35.316 10.8987 35.548 10.4587 35.692ZM7.36268 35.248H9.19868C9.71068 35.248 10.1067 35.128 10.3867 34.888C10.6667 34.648 10.8067 34.316 10.8067 33.892C10.8067 33.468 10.6667 33.136 10.3867 32.896C10.1067 32.656 9.70268 32.536 9.17468 32.536H7.36268V35.248ZM9.29468 39.1C9.83868 39.1 10.2627 38.972 10.5667 38.716C10.8707 38.46 11.0227 38.104 11.0227 37.648C11.0227 37.184 10.8627 36.82 10.5427 36.556C10.2227 36.284 9.79468 36.148 9.25868 36.148H7.36268V39.1H9.29468ZM16.4981 40.108C15.8821 40.108 15.3221 39.968 14.8181 39.688C14.3221 39.408 13.9301 39.012 13.6421 38.5C13.3621 37.98 13.2221 37.38 13.2221 36.7C13.2221 36.028 13.3661 35.436 13.6541 34.924C13.9501 34.404 14.3501 34.008 14.8541 33.736C15.3581 33.456 15.9221 33.316 16.5461 33.316C17.1701 33.316 17.7341 33.456 18.2381 33.736C18.7421 34.008 19.1381 34.4 19.4261 34.912C19.7221 35.424 19.8701 36.02 19.8701 36.7C19.8701 37.38 19.7181 37.98 19.4141 38.5C19.1181 39.012 18.7141 39.408 18.2021 39.688C17.6901 39.968 17.1221 40.108 16.4981 40.108ZM16.4981 39.148C16.8901 39.148 17.2581 39.056 17.6021 38.872C17.9461 38.688 18.2221 38.412 18.4301 38.044C18.6461 37.676 18.7541 37.228 18.7541 36.7C18.7541 36.172 18.6501 35.724 18.4421 35.356C18.2341 34.988 17.9621 34.716 17.6261 34.54C17.2901 34.356 16.9261 34.264 16.5341 34.264C16.1341 34.264 15.7661 34.356 15.4301 34.54C15.1021 34.716 14.8381 34.988 14.6381 35.356C14.4381 35.724 14.3381 36.172 14.3381 36.7C14.3381 37.236 14.4341 37.688 14.6261 38.056C14.8261 38.424 15.0901 38.7 15.4181 38.884C15.7461 39.06 16.1061 39.148 16.4981 39.148ZM24.1738 40.108C23.5578 40.108 22.9978 39.968 22.4938 39.688C21.9978 39.408 21.6058 39.012 21.3178 38.5C21.0378 37.98 20.8978 37.38 20.8978 36.7C20.8978 36.028 21.0418 35.436 21.3298 34.924C21.6258 34.404 22.0258 34.008 22.5298 33.736C23.0338 33.456 23.5978 33.316 24.2218 33.316C24.8458 33.316 25.4098 33.456 25.9138 33.736C26.4178 34.008 26.8138 34.4 27.1018 34.912C27.3978 35.424 27.5458 36.02 27.5458 36.7C27.5458 37.38 27.3938 37.98 27.0898 38.5C26.7938 39.012 26.3898 39.408 25.8778 39.688C25.3658 39.968 24.7978 40.108 24.1738 40.108ZM24.1738 39.148C24.5658 39.148 24.9338 39.056 25.2778 38.872C25.6218 38.688 25.8978 38.412 26.1058 38.044C26.3218 37.676 26.4298 37.228 26.4298 36.7C26.4298 36.172 26.3258 35.724 26.1178 35.356C25.9098 34.988 25.6378 34.716 25.3018 34.54C24.9658 34.356 24.6018 34.264 24.2098 34.264C23.8098 34.264 23.4418 34.356 23.1058 34.54C22.7778 34.716 22.5138 34.988 22.3138 35.356C22.1138 35.724 22.0138 36.172 22.0138 36.7C22.0138 37.236 22.1098 37.688 22.3018 38.056C22.5018 38.424 22.7658 38.7 23.0938 38.884C23.4218 39.06 23.7818 39.148 24.1738 39.148ZM32.6536 40L30.0736 37.096V40H28.9816V31.12H30.0736V36.34L32.6056 33.424H34.1296L31.0336 36.7L34.1416 40H32.6536ZM35.7214 32.356C35.5134 32.356 35.3374 32.284 35.1934 32.14C35.0494 31.996 34.9774 31.82 34.9774 31.612C34.9774 31.404 35.0494 31.228 35.1934 31.084C35.3374 30.94 35.5134 30.868 35.7214 30.868C35.9214 30.868 36.0894 30.94 36.2254 31.084C36.3694 31.228 36.4414 31.404 36.4414 31.612C36.4414 31.82 36.3694 31.996 36.2254 32.14C36.0894 32.284 35.9214 32.356 35.7214 32.356ZM36.2494 33.424V40H35.1574V33.424H36.2494ZM41.3145 33.304C42.1145 33.304 42.7625 33.548 43.2585 34.036C43.7545 34.516 44.0025 35.212 44.0025 36.124V40H42.9225V36.28C42.9225 35.624 42.7585 35.124 42.4305 34.78C42.1025 34.428 41.6545 34.252 41.0865 34.252C40.5105 34.252 40.0505 34.432 39.7065 34.792C39.3705 35.152 39.2025 35.676 39.2025 36.364V40H38.1105V33.424H39.2025V34.36C39.4185 34.024 39.7105 33.764 40.0785 33.58C40.4545 33.396 40.8665 33.304 41.3145 33.304ZM48.4983 33.316C49.0663 33.316 49.5623 33.44 49.9863 33.688C50.4183 33.936 50.7383 34.248 50.9463 34.624V33.424H52.0503V40.144C52.0503 40.744 51.9223 41.276 51.6663 41.74C51.4103 42.212 51.0423 42.58 50.5623 42.844C50.0903 43.108 49.5383 43.24 48.9063 43.24C48.0423 43.24 47.3223 43.036 46.7463 42.628C46.1703 42.22 45.8303 41.664 45.7263 40.96H46.8063C46.9263 41.36 47.1743 41.68 47.5503 41.92C47.9263 42.168 48.3783 42.292 48.9063 42.292C49.5063 42.292 49.9943 42.104 50.3703 41.728C50.7543 41.352 50.9463 40.824 50.9463 40.144V38.764C50.7303 39.148 50.4103 39.468 49.9863 39.724C49.5623 39.98 49.0663 40.108 48.4983 40.108C47.9143 40.108 47.3823 39.964 46.9023 39.676C46.4303 39.388 46.0583 38.984 45.7863 38.464C45.5143 37.944 45.3783 37.352 45.3783 36.688C45.3783 36.016 45.5143 35.428 45.7863 34.924C46.0583 34.412 46.4303 34.016 46.9023 33.736C47.3823 33.456 47.9143 33.316 48.4983 33.316ZM50.9463 36.7C50.9463 36.204 50.8463 35.772 50.6463 35.404C50.4463 35.036 50.1743 34.756 49.8303 34.564C49.4943 34.364 49.1223 34.264 48.7143 34.264C48.3063 34.264 47.9343 34.36 47.5983 34.552C47.2623 34.744 46.9943 35.024 46.7943 35.392C46.5943 35.76 46.4943 36.192 46.4943 36.688C46.4943 37.192 46.5943 37.632 46.7943 38.008C46.9943 38.376 47.2623 38.66 47.5983 38.86C47.9343 39.052 48.3063 39.148 48.7143 39.148C49.1223 39.148 49.4943 39.052 49.8303 38.86C50.1743 38.66 50.4463 38.376 50.6463 38.008C50.8463 37.632 50.9463 37.196 50.9463 36.7Z" fill="#1B1B1B"/>
</svg>
