<svg width="61" height="49" viewBox="0 0 61 49" fill="none" xmlns="http://www.w3.org/2000/svg">
<path d="M30.0001 21.65C29.6901 21.65 29.3901 21.61 29.1401 21.52C25.3201 20.21 19.2501 15.56 19.2501 8.69C19.2501 5.19 22.0801 2.35 25.5601 2.35C27.2501 2.35 28.8301 3.01 30.0001 4.19C31.1701 3.01 32.7501 2.35 34.4401 2.35C37.9201 2.35 40.7501 5.2 40.7501 8.69C40.7501 15.57 34.6801 20.21 30.8601 21.52C30.6101 21.61 30.3101 21.65 30.0001 21.65ZM25.5601 3.85C22.9101 3.85 20.7501 6.02 20.7501 8.69C20.7501 15.52 27.3201 19.32 29.6301 20.11C29.8101 20.17 30.2001 20.17 30.3801 20.11C32.6801 19.32 39.2601 15.53 39.2601 8.69C39.2601 6.02 37.1001 3.85 34.4501 3.85C32.9301 3.85 31.5201 4.56 30.6101 5.79C30.3301 6.17 29.6901 6.17 29.4101 5.79C28.4801 4.55 27.0801 3.85 25.5601 3.85Z" fill="#292D32"/>
<path d="M4.77895 30.636V31.524H1.14295V34.344H4.09495V35.232H1.14295V39H0.0509532V30.636H4.77895ZM5.68983 35.688C5.68983 35.016 5.82583 34.428 6.09783 33.924C6.36983 33.412 6.74183 33.016 7.21383 32.736C7.69383 32.456 8.22583 32.316 8.80983 32.316C9.38583 32.316 9.88583 32.44 10.3098 32.688C10.7338 32.936 11.0498 33.248 11.2578 33.624V32.424H12.3618V39H11.2578V37.776C11.0418 38.16 10.7178 38.48 10.2858 38.736C9.86183 38.984 9.36583 39.108 8.79783 39.108C8.21383 39.108 7.68583 38.964 7.21383 38.676C6.74183 38.388 6.36983 37.984 6.09783 37.464C5.82583 36.944 5.68983 36.352 5.68983 35.688ZM11.2578 35.7C11.2578 35.204 11.1578 34.772 10.9578 34.404C10.7578 34.036 10.4858 33.756 10.1418 33.564C9.80583 33.364 9.43383 33.264 9.02583 33.264C8.61783 33.264 8.24583 33.36 7.90983 33.552C7.57383 33.744 7.30583 34.024 7.10583 34.392C6.90583 34.76 6.80583 35.192 6.80583 35.688C6.80583 36.192 6.90583 36.632 7.10583 37.008C7.30583 37.376 7.57383 37.66 7.90983 37.86C8.24583 38.052 8.61783 38.148 9.02583 38.148C9.43383 38.148 9.80583 38.052 10.1418 37.86C10.4858 37.66 10.7578 37.376 10.9578 37.008C11.1578 36.632 11.2578 36.196 11.2578 35.7ZM16.6552 37.992L18.6952 32.424H19.8592L17.2792 39H16.0072L13.4272 32.424H14.6032L16.6552 37.992ZM23.8018 39.108C23.1858 39.108 22.6258 38.968 22.1218 38.688C21.6258 38.408 21.2338 38.012 20.9458 37.5C20.6658 36.98 20.5258 36.38 20.5258 35.7C20.5258 35.028 20.6698 34.436 20.9578 33.924C21.2538 33.404 21.6538 33.008 22.1578 32.736C22.6618 32.456 23.2258 32.316 23.8498 32.316C24.4738 32.316 25.0378 32.456 25.5418 32.736C26.0458 33.008 26.4418 33.4 26.7298 33.912C27.0258 34.424 27.1738 35.02 27.1738 35.7C27.1738 36.38 27.0218 36.98 26.7178 37.5C26.4218 38.012 26.0178 38.408 25.5058 38.688C24.9938 38.968 24.4258 39.108 23.8018 39.108ZM23.8018 38.148C24.1938 38.148 24.5618 38.056 24.9058 37.872C25.2498 37.688 25.5258 37.412 25.7338 37.044C25.9498 36.676 26.0578 36.228 26.0578 35.7C26.0578 35.172 25.9538 34.724 25.7458 34.356C25.5378 33.988 25.2658 33.716 24.9298 33.54C24.5938 33.356 24.2298 33.264 23.8378 33.264C23.4378 33.264 23.0698 33.356 22.7338 33.54C22.4058 33.716 22.1418 33.988 21.9418 34.356C21.7418 34.724 21.6418 35.172 21.6418 35.7C21.6418 36.236 21.7378 36.688 21.9298 37.056C22.1298 37.424 22.3938 37.7 22.7218 37.884C23.0498 38.06 23.4098 38.148 23.8018 38.148ZM34.4415 32.424V39H33.3495V38.028C33.1415 38.364 32.8495 38.628 32.4735 38.82C32.1055 39.004 31.6975 39.096 31.2495 39.096C30.7375 39.096 30.2775 38.992 29.8695 38.784C29.4615 38.568 29.1375 38.248 28.8975 37.824C28.6655 37.4 28.5495 36.884 28.5495 36.276V32.424H29.6295V36.132C29.6295 36.78 29.7935 37.28 30.1215 37.632C30.4495 37.976 30.8975 38.148 31.4655 38.148C32.0495 38.148 32.5095 37.968 32.8455 37.608C33.1815 37.248 33.3495 36.724 33.3495 36.036V32.424H34.4415ZM37.3773 33.492C37.5693 33.116 37.8413 32.824 38.1933 32.616C38.5533 32.408 38.9893 32.304 39.5013 32.304V33.432H39.2133C37.9893 33.432 37.3773 34.096 37.3773 35.424V39H36.2853V32.424H37.3773V33.492ZM41.3259 31.356C41.1179 31.356 40.9419 31.284 40.7979 31.14C40.6539 30.996 40.5819 30.82 40.5819 30.612C40.5819 30.404 40.6539 30.228 40.7979 30.084C40.9419 29.94 41.1179 29.868 41.3259 29.868C41.5259 29.868 41.6939 29.94 41.8299 30.084C41.9739 30.228 42.0459 30.404 42.0459 30.612C42.0459 30.82 41.9739 30.996 41.8299 31.14C41.6939 31.284 41.5259 31.356 41.3259 31.356ZM41.8539 32.424V39H40.7619V32.424H41.8539ZM45.047 33.324V37.2C45.047 37.52 45.115 37.748 45.251 37.884C45.387 38.012 45.623 38.076 45.959 38.076H46.763V39H45.779C45.171 39 44.715 38.86 44.411 38.58C44.107 38.3 43.955 37.84 43.955 37.2V33.324H43.103V32.424H43.955V30.768H45.047V32.424H46.763V33.324H45.047ZM54.0861 35.46C54.0861 35.668 54.0741 35.888 54.0501 36.12H48.7941C48.8341 36.768 49.0541 37.276 49.4541 37.644C49.8621 38.004 50.3541 38.184 50.9301 38.184C51.4021 38.184 51.7941 38.076 52.1061 37.86C52.4261 37.636 52.6501 37.34 52.7781 36.972H53.9541C53.7781 37.604 53.4261 38.12 52.8981 38.52C52.3701 38.912 51.7141 39.108 50.9301 39.108C50.3061 39.108 49.7461 38.968 49.2501 38.688C48.7621 38.408 48.3781 38.012 48.0981 37.5C47.8181 36.98 47.6781 36.38 47.6781 35.7C47.6781 35.02 47.8141 34.424 48.0861 33.912C48.3581 33.4 48.7381 33.008 49.2261 32.736C49.7221 32.456 50.2901 32.316 50.9301 32.316C51.5541 32.316 52.1061 32.452 52.5861 32.724C53.0661 32.996 53.4341 33.372 53.6901 33.852C53.9541 34.324 54.0861 34.86 54.0861 35.46ZM52.9581 35.232C52.9581 34.816 52.8661 34.46 52.6821 34.164C52.4981 33.86 52.2461 33.632 51.9261 33.48C51.6141 33.32 51.2661 33.24 50.8821 33.24C50.3301 33.24 49.8581 33.416 49.4661 33.768C49.0821 34.12 48.8621 34.608 48.8061 35.232H52.9581ZM57.8555 39.108C57.3515 39.108 56.8995 39.024 56.4995 38.856C56.0995 38.68 55.7835 38.44 55.5515 38.136C55.3195 37.824 55.1915 37.468 55.1675 37.068H56.2955C56.3275 37.396 56.4795 37.664 56.7515 37.872C57.0315 38.08 57.3955 38.184 57.8435 38.184C58.2595 38.184 58.5875 38.092 58.8275 37.908C59.0675 37.724 59.1875 37.492 59.1875 37.212C59.1875 36.924 59.0595 36.712 58.8035 36.576C58.5475 36.432 58.1515 36.292 57.6155 36.156C57.1275 36.028 56.7275 35.9 56.4155 35.772C56.1115 35.636 55.8475 35.44 55.6235 35.184C55.4075 34.92 55.2995 34.576 55.2995 34.152C55.2995 33.816 55.3995 33.508 55.5995 33.228C55.7995 32.948 56.0835 32.728 56.4515 32.568C56.8195 32.4 57.2395 32.316 57.7115 32.316C58.4395 32.316 59.0275 32.5 59.4755 32.868C59.9235 33.236 60.1635 33.74 60.1955 34.38H59.1035C59.0795 34.036 58.9395 33.76 58.6835 33.552C58.4355 33.344 58.0995 33.24 57.6755 33.24C57.2835 33.24 56.9715 33.324 56.7395 33.492C56.5075 33.66 56.3915 33.88 56.3915 34.152C56.3915 34.368 56.4595 34.548 56.5955 34.692C56.7395 34.828 56.9155 34.94 57.1235 35.028C57.3395 35.108 57.6355 35.2 58.0115 35.304C58.4835 35.432 58.8675 35.56 59.1635 35.688C59.4595 35.808 59.7115 35.992 59.9195 36.24C60.1355 36.488 60.2475 36.812 60.2555 37.212C60.2555 37.572 60.1555 37.896 59.9555 38.184C59.7555 38.472 59.4715 38.7 59.1035 38.868C58.7435 39.028 58.3275 39.108 57.8555 39.108Z" fill="#1B1B1B"/>
</svg>
