<svg width="61" height="49" viewBox="0 0 61 49" fill="none" xmlns="http://www.w3.org/2000/svg">
<path d="M29.9492 21.65C29.6392 21.65 29.3392 21.61 29.0892 21.52C25.2692 20.21 19.1992 15.56 19.1992 8.68998C19.1992 5.18998 22.0292 2.34998 25.5092 2.34998C27.1992 2.34998 28.7792 3.00998 29.9492 4.18998C31.1192 3.00998 32.6992 2.34998 34.3892 2.34998C37.8692 2.34998 40.6992 5.19998 40.6992 8.68998C40.6992 15.57 34.6292 20.21 30.8092 21.52C30.5592 21.61 30.2592 21.65 29.9492 21.65ZM25.5092 3.84998C22.8592 3.84998 20.6992 6.01998 20.6992 8.68998C20.6992 15.52 27.2692 19.32 29.5792 20.11C29.7592 20.17 30.1492 20.17 30.3292 20.11C32.6292 19.32 39.2092 15.53 39.2092 8.68998C39.2092 6.01998 37.0492 3.84998 34.3992 3.84998C32.8792 3.84998 31.4692 4.55998 30.5592 5.78998C30.2792 6.16998 29.6392 6.16998 29.3592 5.78998C28.4292 4.54998 27.0292 3.84998 25.5092 3.84998Z" fill="#858585"/>
<path d="M4.72805 30.636V31.524H1.09205V34.344H4.04405V35.232H1.09205V39H4.98891e-05V30.636H4.72805ZM5.63892 35.688C5.63892 35.016 5.77492 34.428 6.04692 33.924C6.31892 33.412 6.69092 33.016 7.16292 32.736C7.64292 32.456 8.17492 32.316 8.75892 32.316C9.33493 32.316 9.83493 32.44 10.2589 32.688C10.6829 32.936 10.9989 33.248 11.2069 33.624V32.424H12.3109V39H11.2069V37.776C10.9909 38.16 10.6669 38.48 10.2349 38.736C9.81093 38.984 9.31493 39.108 8.74692 39.108C8.16293 39.108 7.63492 38.964 7.16292 38.676C6.69092 38.388 6.31892 37.984 6.04692 37.464C5.77492 36.944 5.63892 36.352 5.63892 35.688ZM11.2069 35.7C11.2069 35.204 11.1069 34.772 10.9069 34.404C10.7069 34.036 10.4349 33.756 10.0909 33.564C9.75493 33.364 9.38292 33.264 8.97492 33.264C8.56692 33.264 8.19492 33.36 7.85892 33.552C7.52292 33.744 7.25492 34.024 7.05492 34.392C6.85492 34.76 6.75492 35.192 6.75492 35.688C6.75492 36.192 6.85492 36.632 7.05492 37.008C7.25492 37.376 7.52292 37.66 7.85892 37.86C8.19492 38.052 8.56692 38.148 8.97492 38.148C9.38292 38.148 9.75493 38.052 10.0909 37.86C10.4349 37.66 10.7069 37.376 10.9069 37.008C11.1069 36.632 11.2069 36.196 11.2069 35.7ZM16.6043 37.992L18.6443 32.424H19.8083L17.2283 39H15.9563L13.3763 32.424H14.5523L16.6043 37.992ZM23.7509 39.108C23.1349 39.108 22.5749 38.968 22.0709 38.688C21.5749 38.408 21.1829 38.012 20.8949 37.5C20.6149 36.98 20.4749 36.38 20.4749 35.7C20.4749 35.028 20.6189 34.436 20.9069 33.924C21.2029 33.404 21.6029 33.008 22.1069 32.736C22.6109 32.456 23.1749 32.316 23.7989 32.316C24.4229 32.316 24.9869 32.456 25.4909 32.736C25.9949 33.008 26.3909 33.4 26.6789 33.912C26.9749 34.424 27.1229 35.02 27.1229 35.7C27.1229 36.38 26.9709 36.98 26.6669 37.5C26.3709 38.012 25.9669 38.408 25.4549 38.688C24.9429 38.968 24.3749 39.108 23.7509 39.108ZM23.7509 38.148C24.1429 38.148 24.5109 38.056 24.8549 37.872C25.1989 37.688 25.4749 37.412 25.6829 37.044C25.8989 36.676 26.0069 36.228 26.0069 35.7C26.0069 35.172 25.9029 34.724 25.6949 34.356C25.4869 33.988 25.2149 33.716 24.8789 33.54C24.5429 33.356 24.1789 33.264 23.7869 33.264C23.3869 33.264 23.0189 33.356 22.6829 33.54C22.3549 33.716 22.0909 33.988 21.8909 34.356C21.6909 34.724 21.5909 35.172 21.5909 35.7C21.5909 36.236 21.6869 36.688 21.8789 37.056C22.0789 37.424 22.3429 37.7 22.6709 37.884C22.9989 38.06 23.3589 38.148 23.7509 38.148ZM34.3906 32.424V39H33.2986V38.028C33.0906 38.364 32.7986 38.628 32.4226 38.82C32.0546 39.004 31.6466 39.096 31.1986 39.096C30.6866 39.096 30.2266 38.992 29.8186 38.784C29.4106 38.568 29.0866 38.248 28.8466 37.824C28.6146 37.4 28.4986 36.884 28.4986 36.276V32.424H29.5786V36.132C29.5786 36.78 29.7426 37.28 30.0706 37.632C30.3986 37.976 30.8466 38.148 31.4146 38.148C31.9986 38.148 32.4586 37.968 32.7946 37.608C33.1306 37.248 33.2986 36.724 33.2986 36.036V32.424H34.3906ZM37.3264 33.492C37.5184 33.116 37.7904 32.824 38.1424 32.616C38.5024 32.408 38.9384 32.304 39.4504 32.304V33.432H39.1624C37.9384 33.432 37.3264 34.096 37.3264 35.424V39H36.2344V32.424H37.3264V33.492ZM41.275 31.356C41.067 31.356 40.891 31.284 40.747 31.14C40.603 30.996 40.531 30.82 40.531 30.612C40.531 30.404 40.603 30.228 40.747 30.084C40.891 29.94 41.067 29.868 41.275 29.868C41.475 29.868 41.643 29.94 41.779 30.084C41.923 30.228 41.995 30.404 41.995 30.612C41.995 30.82 41.923 30.996 41.779 31.14C41.643 31.284 41.475 31.356 41.275 31.356ZM41.803 32.424V39H40.711V32.424H41.803ZM44.9961 33.324V37.2C44.9961 37.52 45.0641 37.748 45.2001 37.884C45.3361 38.012 45.5721 38.076 45.9081 38.076H46.7121V39H45.7281C45.1201 39 44.6641 38.86 44.3601 38.58C44.0561 38.3 43.9041 37.84 43.9041 37.2V33.324H43.0521V32.424H43.9041V30.768H44.9961V32.424H46.7121V33.324H44.9961ZM54.0352 35.46C54.0352 35.668 54.0232 35.888 53.9992 36.12H48.7432C48.7832 36.768 49.0032 37.276 49.4032 37.644C49.8112 38.004 50.3032 38.184 50.8792 38.184C51.3512 38.184 51.7432 38.076 52.0552 37.86C52.3752 37.636 52.5992 37.34 52.7272 36.972H53.9032C53.7272 37.604 53.3752 38.12 52.8472 38.52C52.3192 38.912 51.6632 39.108 50.8792 39.108C50.2552 39.108 49.6952 38.968 49.1992 38.688C48.7112 38.408 48.3272 38.012 48.0472 37.5C47.7672 36.98 47.6272 36.38 47.6272 35.7C47.6272 35.02 47.7632 34.424 48.0352 33.912C48.3072 33.4 48.6872 33.008 49.1752 32.736C49.6712 32.456 50.2392 32.316 50.8792 32.316C51.5032 32.316 52.0552 32.452 52.5352 32.724C53.0152 32.996 53.3832 33.372 53.6392 33.852C53.9032 34.324 54.0352 34.86 54.0352 35.46ZM52.9072 35.232C52.9072 34.816 52.8152 34.46 52.6312 34.164C52.4472 33.86 52.1952 33.632 51.8752 33.48C51.5632 33.32 51.2152 33.24 50.8312 33.24C50.2792 33.24 49.8072 33.416 49.4152 33.768C49.0312 34.12 48.8112 34.608 48.7552 35.232H52.9072ZM57.8046 39.108C57.3006 39.108 56.8486 39.024 56.4486 38.856C56.0486 38.68 55.7326 38.44 55.5006 38.136C55.2686 37.824 55.1406 37.468 55.1166 37.068H56.2446C56.2766 37.396 56.4286 37.664 56.7006 37.872C56.9806 38.08 57.3446 38.184 57.7926 38.184C58.2086 38.184 58.5366 38.092 58.7766 37.908C59.0166 37.724 59.1366 37.492 59.1366 37.212C59.1366 36.924 59.0086 36.712 58.7526 36.576C58.4966 36.432 58.1006 36.292 57.5646 36.156C57.0766 36.028 56.6766 35.9 56.3646 35.772C56.0606 35.636 55.7966 35.44 55.5726 35.184C55.3566 34.92 55.2486 34.576 55.2486 34.152C55.2486 33.816 55.3486 33.508 55.5486 33.228C55.7486 32.948 56.0326 32.728 56.4006 32.568C56.7686 32.4 57.1886 32.316 57.6606 32.316C58.3886 32.316 58.9766 32.5 59.4246 32.868C59.8726 33.236 60.1126 33.74 60.1446 34.38H59.0526C59.0286 34.036 58.8886 33.76 58.6326 33.552C58.3846 33.344 58.0486 33.24 57.6246 33.24C57.2326 33.24 56.9206 33.324 56.6886 33.492C56.4566 33.66 56.3406 33.88 56.3406 34.152C56.3406 34.368 56.4086 34.548 56.5446 34.692C56.6886 34.828 56.8646 34.94 57.0726 35.028C57.2886 35.108 57.5846 35.2 57.9606 35.304C58.4326 35.432 58.8166 35.56 59.1126 35.688C59.4086 35.808 59.6606 35.992 59.8686 36.24C60.0846 36.488 60.1966 36.812 60.2046 37.212C60.2046 37.572 60.1046 37.896 59.9046 38.184C59.7046 38.472 59.4206 38.7 59.0526 38.868C58.6926 39.028 58.2766 39.108 57.8046 39.108Z" fill="#858585"/>
</svg>
