<svg width="75" height="62" viewBox="0 0 75 62" fill="none" xmlns="http://www.w3.org/2000/svg">
<g filter="url(#filter0_d_16049_382)">
<path d="M43.4023 4C41.4944 4.00006 40.116 5.58093 39.1738 7.33691C38.6573 8.29833 36.3428 8.29833 35.8262 7.33691C34.884 5.58093 33.5056 4.00007 31.5977 4H23C20.7909 4 19 2.20914 19 0H56C56 2.20914 54.2091 4 52 4H43.4023Z" fill="url(#paint0_linear_16049_382)"/>
</g>
<path d="M48 21.69C48 22.88 47.81 23.98 47.48 25H28.52C28.19 23.98 28 22.88 28 21.69C28 18.6 30.49 16.1 33.56 16.1C35.37 16.1 36.99 16.98 38 18.33C39.01 16.98 40.63 16.1 42.44 16.1C45.51 16.1 48 18.6 48 21.69Z" fill="url(#paint1_linear_16049_382)"/>
<path opacity="0.4" d="M47.48 25C45.9 30 41.03 32.99 38.62 33.81C38.28 33.93 37.72 33.93 37.38 33.81C34.97 32.99 30.1 30 28.52 25H47.48Z" fill="url(#paint2_linear_16049_382)"/>
<path d="M11.4727 43.6821V45.0381H7.98066V47.1861H10.6567V48.5181H7.98066V52.0581H6.30066V43.6821H11.4727ZM12.2319 48.7101C12.2319 48.0381 12.3639 47.4421 12.6279 46.9221C12.8999 46.4021 13.2639 46.0021 13.7199 45.7221C14.1839 45.4421 14.6999 45.3021 15.2679 45.3021C15.7639 45.3021 16.1959 45.4021 16.5639 45.6021C16.9399 45.8021 17.2399 46.0541 17.4639 46.3581V45.4101H19.1559V52.0581H17.4639V51.0861C17.2479 51.3981 16.9479 51.6581 16.5639 51.8661C16.1879 52.0661 15.7519 52.1661 15.2559 52.1661C14.6959 52.1661 14.1839 52.0221 13.7199 51.7341C13.2639 51.4461 12.8999 51.0421 12.6279 50.5221C12.3639 49.9941 12.2319 49.3901 12.2319 48.7101ZM17.4639 48.7341C17.4639 48.3261 17.3839 47.9781 17.2239 47.6901C17.0639 47.3941 16.8479 47.1701 16.5759 47.0181C16.3039 46.8581 16.0119 46.7781 15.6999 46.7781C15.3879 46.7781 15.0999 46.8541 14.8359 47.0061C14.5719 47.1581 14.3559 47.3821 14.1879 47.6781C14.0279 47.9661 13.9479 48.3101 13.9479 48.7101C13.9479 49.1101 14.0279 49.4621 14.1879 49.7661C14.3559 50.0621 14.5719 50.2901 14.8359 50.4501C15.1079 50.6101 15.3959 50.6901 15.6999 50.6901C16.0119 50.6901 16.3039 50.6141 16.5759 50.4621C16.8479 50.3021 17.0639 50.0781 17.2239 49.7901C17.3839 49.4941 17.4639 49.1421 17.4639 48.7341ZM23.5688 50.5101L25.2488 45.4101H27.0368L24.5768 52.0581H22.5368L20.0888 45.4101H21.8888L23.5688 50.5101ZM30.9323 52.1661C30.2923 52.1661 29.7163 52.0261 29.2043 51.7461C28.6923 51.4581 28.2883 51.0541 27.9923 50.5341C27.7043 50.0141 27.5603 49.4141 27.5603 48.7341C27.5603 48.0541 27.7083 47.4541 28.0043 46.9341C28.3083 46.4141 28.7203 46.0141 29.2403 45.7341C29.7603 45.4461 30.3403 45.3021 30.9803 45.3021C31.6203 45.3021 32.2003 45.4461 32.7203 45.7341C33.2403 46.0141 33.6483 46.4141 33.9443 46.9341C34.2483 47.4541 34.4003 48.0541 34.4003 48.7341C34.4003 49.4141 34.2443 50.0141 33.9323 50.5341C33.6283 51.0541 33.2123 51.4581 32.6843 51.7461C32.1643 52.0261 31.5803 52.1661 30.9323 52.1661ZM30.9323 50.7021C31.2363 50.7021 31.5203 50.6301 31.7843 50.4861C32.0563 50.3341 32.2723 50.1101 32.4323 49.8141C32.5923 49.5181 32.6723 49.1581 32.6723 48.7341C32.6723 48.1021 32.5043 47.6181 32.1683 47.2821C31.8403 46.9381 31.4363 46.7661 30.9563 46.7661C30.4763 46.7661 30.0723 46.9381 29.7443 47.2821C29.4243 47.6181 29.2643 48.1021 29.2643 48.7341C29.2643 49.3661 29.4203 49.8541 29.7323 50.1981C30.0523 50.5341 30.4523 50.7021 30.9323 50.7021ZM41.9087 45.4101V52.0581H40.2167V51.2181C40.0007 51.5061 39.7167 51.7341 39.3647 51.9021C39.0207 52.0621 38.6447 52.1421 38.2367 52.1421C37.7167 52.1421 37.2567 52.0341 36.8567 51.8181C36.4567 51.5941 36.1407 51.2701 35.9087 50.8461C35.6847 50.4141 35.5727 49.9021 35.5727 49.3101V45.4101H37.2527V49.0701C37.2527 49.5981 37.3847 50.0061 37.6487 50.2941C37.9127 50.5741 38.2727 50.7141 38.7287 50.7141C39.1927 50.7141 39.5567 50.5741 39.8207 50.2941C40.0847 50.0061 40.2167 49.5981 40.2167 49.0701V45.4101H41.9087ZM45.2463 46.4421C45.4623 46.0901 45.7423 45.8141 46.0863 45.6141C46.4383 45.4141 46.8383 45.3141 47.2863 45.3141V47.0781H46.8423C46.3143 47.0781 45.9143 47.2021 45.6423 47.4501C45.3783 47.6981 45.2463 48.1301 45.2463 48.7461V52.0581H43.5663V45.4101H45.2463V46.4421ZM49.2698 44.6181C48.9738 44.6181 48.7258 44.5261 48.5258 44.3421C48.3338 44.1501 48.2378 43.9141 48.2378 43.6341C48.2378 43.3541 48.3338 43.1221 48.5258 42.9381C48.7258 42.7461 48.9738 42.6501 49.2698 42.6501C49.5658 42.6501 49.8098 42.7461 50.0018 42.9381C50.2018 43.1221 50.3018 43.3541 50.3018 43.6341C50.3018 43.9141 50.2018 44.1501 50.0018 44.3421C49.8098 44.5261 49.5658 44.6181 49.2698 44.6181ZM50.0978 45.4101V52.0581H48.4178V45.4101H50.0978ZM53.7137 46.7901V50.0061C53.7137 50.2301 53.7657 50.3941 53.8697 50.4981C53.9817 50.5941 54.1657 50.6421 54.4217 50.6421H55.2017V52.0581H54.1457C52.7297 52.0581 52.0217 51.3701 52.0217 49.9941V46.7901H51.2297V45.4101H52.0217V43.7661H53.7137V45.4101H55.2017V46.7901H53.7137ZM62.59 48.5901C62.59 48.8301 62.574 49.0461 62.542 49.2381H57.682C57.722 49.7181 57.89 50.0941 58.186 50.3661C58.482 50.6381 58.846 50.7741 59.278 50.7741C59.902 50.7741 60.346 50.5061 60.61 49.9701H62.422C62.23 50.6101 61.862 51.1381 61.318 51.5541C60.774 51.9621 60.106 52.1661 59.314 52.1661C58.674 52.1661 58.098 52.0261 57.586 51.7461C57.082 51.4581 56.686 51.0541 56.398 50.5341C56.118 50.0141 55.978 49.4141 55.978 48.7341C55.978 48.0461 56.118 47.4421 56.398 46.9221C56.678 46.4021 57.07 46.0021 57.574 45.7221C58.078 45.4421 58.658 45.3021 59.314 45.3021C59.946 45.3021 60.51 45.4381 61.006 45.7101C61.51 45.9821 61.898 46.3701 62.17 46.8741C62.45 47.3701 62.59 47.9421 62.59 48.5901ZM60.85 48.1101C60.842 47.6781 60.686 47.3341 60.382 47.0781C60.078 46.8141 59.706 46.6821 59.266 46.6821C58.85 46.6821 58.498 46.8101 58.21 47.0661C57.93 47.3141 57.758 47.6621 57.694 48.1101H60.85ZM66.3603 52.1661C65.8163 52.1661 65.3283 52.0701 64.8963 51.8781C64.4643 51.6781 64.1203 51.4101 63.8643 51.0741C63.6163 50.7381 63.4803 50.3661 63.4563 49.9581H65.1483C65.1803 50.2141 65.3043 50.4261 65.5203 50.5941C65.7443 50.7621 66.0203 50.8461 66.3483 50.8461C66.6683 50.8461 66.9163 50.7821 67.0923 50.6541C67.2763 50.5261 67.3683 50.3621 67.3683 50.1621C67.3683 49.9461 67.2563 49.7861 67.0323 49.6821C66.8163 49.5701 66.4683 49.4501 65.9883 49.3221C65.4923 49.2021 65.0843 49.0781 64.7643 48.9501C64.4523 48.8221 64.1803 48.6261 63.9483 48.3621C63.7243 48.0981 63.6123 47.7421 63.6123 47.2941C63.6123 46.9261 63.7163 46.5901 63.9243 46.2861C64.1403 45.9821 64.4443 45.7421 64.8363 45.5661C65.2363 45.3901 65.7043 45.3021 66.2403 45.3021C67.0323 45.3021 67.6643 45.5021 68.1363 45.9021C68.6083 46.2941 68.8683 46.8261 68.9163 47.4981H67.3083C67.2843 47.2341 67.1723 47.0261 66.9723 46.8741C66.7803 46.7141 66.5203 46.6341 66.1923 46.6341C65.8883 46.6341 65.6523 46.6901 65.4843 46.8021C65.3243 46.9141 65.2443 47.0701 65.2443 47.2701C65.2443 47.4941 65.3563 47.6661 65.5803 47.7861C65.8043 47.8981 66.1523 48.0141 66.6243 48.1341C67.1043 48.2541 67.5003 48.3781 67.8123 48.5061C68.1243 48.6341 68.3923 48.8341 68.6163 49.1061C68.8483 49.3701 68.9683 49.7221 68.9763 50.1621C68.9763 50.5461 68.8683 50.8901 68.6523 51.1941C68.4443 51.4981 68.1403 51.7381 67.7403 51.9141C67.3483 52.0821 66.8883 52.1661 66.3603 52.1661Z" fill="url(#paint3_linear_16049_382)"/>
<defs>
<filter id="filter0_d_16049_382" x="0" y="-13" width="75" height="46.058" filterUnits="userSpaceOnUse" color-interpolation-filters="sRGB">
<feFlood flood-opacity="0" result="BackgroundImageFix"/>
<feColorMatrix in="SourceAlpha" type="matrix" values="0 0 0 0 0 0 0 0 0 0 0 0 0 0 0 0 0 0 127 0" result="hardAlpha"/>
<feOffset dy="6"/>
<feGaussianBlur stdDeviation="9.5"/>
<feComposite in2="hardAlpha" operator="out"/>
<feColorMatrix type="matrix" values="0 0 0 0 0.105882 0 0 0 0 0.105882 0 0 0 0 0.105882 0 0 0 1 0"/>
<feBlend mode="normal" in2="BackgroundImageFix" result="effect1_dropShadow_16049_382"/>
<feBlend mode="normal" in="SourceGraphic" in2="effect1_dropShadow_16049_382" result="shape"/>
</filter>
<linearGradient id="paint0_linear_16049_382" x1="37.5" y1="0" x2="37.5" y2="8.05809" gradientUnits="userSpaceOnUse">
<stop stop-color="#FDFBFB"/>
<stop offset="0.0001" stop-color="white"/>
<stop offset="1" stop-color="#F4F4F4"/>
</linearGradient>
<linearGradient id="paint1_linear_16049_382" x1="38" y1="16.1" x2="38" y2="25" gradientUnits="userSpaceOnUse">
<stop stop-color="#FDFBFB"/>
<stop offset="0.0001" stop-color="white"/>
<stop offset="1" stop-color="#F4F4F4"/>
</linearGradient>
<linearGradient id="paint2_linear_16049_382" x1="38" y1="25" x2="38" y2="33.9" gradientUnits="userSpaceOnUse">
<stop stop-color="#FDFBFB"/>
<stop offset="0.0001" stop-color="white"/>
<stop offset="1" stop-color="#F4F4F4"/>
</linearGradient>
<linearGradient id="paint3_linear_16049_382" x1="37.5" y1="41.0581" x2="37.5" y2="54.0581" gradientUnits="userSpaceOnUse">
<stop stop-color="#FDFBFB"/>
<stop offset="0.0001" stop-color="white"/>
<stop offset="1" stop-color="#F4F4F4"/>
</linearGradient>
</defs>
</svg>
