<svg width="75" height="62" viewBox="0 0 75 62" fill="none" xmlns="http://www.w3.org/2000/svg">
<g filter="url(#filter0_d_16049_340)">
<path d="M43.4023 4C41.4944 4.00006 40.116 5.58093 39.1738 7.33691C38.6573 8.29833 36.3428 8.29833 35.8262 7.33691C34.884 5.58093 33.5056 4.00007 31.5977 4H23C20.7909 4 19 2.20914 19 0H56C56 2.20914 54.2091 4 52 4H43.4023Z" fill="url(#paint0_linear_16049_340)"/>
</g>
<path opacity="0.4" d="M46.04 19.8782L40.28 15.8482C38.71 14.7482 36.3 14.8082 34.79 15.9782L29.78 19.8882C28.78 20.6682 27.99 22.2682 27.99 23.5282V30.4282C27.99 32.9782 30.06 35.0582 32.61 35.0582H43.39C45.94 35.0582 48.01 32.9882 48.01 30.4382V23.6582C48.01 22.3082 47.14 20.6482 46.04 19.8782Z" fill="url(#paint1_linear_16049_340)"/>
<path d="M38 31.8081C37.59 31.8081 37.25 31.4681 37.25 31.0581V28.0581C37.25 27.6481 37.59 27.3081 38 27.3081C38.41 27.3081 38.75 27.6481 38.75 28.0581V31.0581C38.75 31.4681 38.41 31.8081 38 31.8081Z" fill="url(#paint2_linear_16049_340)"/>
<path d="M27.1588 43.6821V52.0581H25.4788V48.4941H21.8908V52.0581H20.2108V43.6821H21.8908V47.1261H25.4788V43.6821H27.1588ZM31.7644 52.1661C31.1244 52.1661 30.5484 52.0261 30.0364 51.7461C29.5244 51.4581 29.1204 51.0541 28.8244 50.5341C28.5364 50.0141 28.3924 49.4141 28.3924 48.7341C28.3924 48.0541 28.5404 47.4541 28.8364 46.9341C29.1404 46.4141 29.5524 46.0141 30.0724 45.7341C30.5924 45.4461 31.1724 45.3021 31.8124 45.3021C32.4524 45.3021 33.0324 45.4461 33.5524 45.7341C34.0724 46.0141 34.4804 46.4141 34.7764 46.9341C35.0804 47.4541 35.2324 48.0541 35.2324 48.7341C35.2324 49.4141 35.0764 50.0141 34.7644 50.5341C34.4604 51.0541 34.0444 51.4581 33.5164 51.7461C32.9964 52.0261 32.4124 52.1661 31.7644 52.1661ZM31.7644 50.7021C32.0684 50.7021 32.3524 50.6301 32.6164 50.4861C32.8884 50.3341 33.1044 50.1101 33.2644 49.8141C33.4244 49.5181 33.5044 49.1581 33.5044 48.7341C33.5044 48.1021 33.3364 47.6181 33.0004 47.2821C32.6724 46.9381 32.2684 46.7661 31.7884 46.7661C31.3084 46.7661 30.9044 46.9381 30.5764 47.2821C30.2564 47.6181 30.0964 48.1021 30.0964 48.7341C30.0964 49.3661 30.2524 49.8541 30.5644 50.1981C30.8844 50.5341 31.2844 50.7021 31.7644 50.7021ZM44.7207 45.3141C45.5367 45.3141 46.1927 45.5661 46.6887 46.0701C47.1927 46.5661 47.4447 47.2621 47.4447 48.1581V52.0581H45.7647V48.3861C45.7647 47.8661 45.6327 47.4701 45.3687 47.1981C45.1047 46.9181 44.7447 46.7781 44.2887 46.7781C43.8327 46.7781 43.4687 46.9181 43.1967 47.1981C42.9327 47.4701 42.8007 47.8661 42.8007 48.3861V52.0581H41.1207V48.3861C41.1207 47.8661 40.9887 47.4701 40.7247 47.1981C40.4607 46.9181 40.1007 46.7781 39.6447 46.7781C39.1807 46.7781 38.8127 46.9181 38.5407 47.1981C38.2767 47.4701 38.1447 47.8661 38.1447 48.3861V52.0581H36.4647V45.4101H38.1447V46.2141C38.3607 45.9341 38.6367 45.7141 38.9727 45.5541C39.3167 45.3941 39.6927 45.3141 40.1007 45.3141C40.6207 45.3141 41.0847 45.4261 41.4927 45.6501C41.9007 45.8661 42.2167 46.1781 42.4407 46.5861C42.6567 46.2021 42.9687 45.8941 43.3767 45.6621C43.7927 45.4301 44.2407 45.3141 44.7207 45.3141ZM55.2189 48.5901C55.2189 48.8301 55.2029 49.0461 55.1709 49.2381H50.3109C50.3509 49.7181 50.5189 50.0941 50.8149 50.3661C51.1109 50.6381 51.4749 50.7741 51.9069 50.7741C52.5309 50.7741 52.9749 50.5061 53.2389 49.9701H55.0509C54.8589 50.6101 54.4909 51.1381 53.9469 51.5541C53.4029 51.9621 52.7349 52.1661 51.9429 52.1661C51.3029 52.1661 50.7269 52.0261 50.2149 51.7461C49.7109 51.4581 49.3149 51.0541 49.0269 50.5341C48.7469 50.0141 48.6069 49.4141 48.6069 48.7341C48.6069 48.0461 48.7469 47.4421 49.0269 46.9221C49.3069 46.4021 49.6989 46.0021 50.2029 45.7221C50.7069 45.4421 51.2869 45.3021 51.9429 45.3021C52.5749 45.3021 53.1389 45.4381 53.6349 45.7101C54.1389 45.9821 54.5269 46.3701 54.7989 46.8741C55.0789 47.3701 55.2189 47.9421 55.2189 48.5901ZM53.4789 48.1101C53.4709 47.6781 53.3149 47.3341 53.0109 47.0781C52.7069 46.8141 52.3349 46.6821 51.8949 46.6821C51.4789 46.6821 51.1269 46.8101 50.8389 47.0661C50.5589 47.3141 50.3869 47.6621 50.3229 48.1101H53.4789Z" fill="url(#paint3_linear_16049_340)"/>
<defs>
<filter id="filter0_d_16049_340" x="0" y="-13" width="75" height="46.058" filterUnits="userSpaceOnUse" color-interpolation-filters="sRGB">
<feFlood flood-opacity="0" result="BackgroundImageFix"/>
<feColorMatrix in="SourceAlpha" type="matrix" values="0 0 0 0 0 0 0 0 0 0 0 0 0 0 0 0 0 0 127 0" result="hardAlpha"/>
<feOffset dy="6"/>
<feGaussianBlur stdDeviation="9.5"/>
<feComposite in2="hardAlpha" operator="out"/>
<feColorMatrix type="matrix" values="0 0 0 0 0.988235 0 0 0 0 0.988235 0 0 0 0 0.988235 0 0 0 1 0"/>
<feBlend mode="normal" in2="BackgroundImageFix" result="effect1_dropShadow_16049_340"/>
<feBlend mode="normal" in="SourceGraphic" in2="effect1_dropShadow_16049_340" result="shape"/>
</filter>
<linearGradient id="paint0_linear_16049_340" x1="37.5" y1="0" x2="37.5" y2="8.05809" gradientUnits="userSpaceOnUse">
<stop stop-color="#FDFBFB"/>
<stop offset="0.0001" stop-color="white"/>
<stop offset="1" stop-color="#F4F4F4"/>
</linearGradient>
<linearGradient id="paint1_linear_16049_340" x1="38" y1="15.0604" x2="38" y2="35.0582" gradientUnits="userSpaceOnUse">
<stop stop-color="#FDFBFB"/>
<stop offset="0.0001" stop-color="white"/>
<stop offset="1" stop-color="#F4F4F4"/>
</linearGradient>
<linearGradient id="paint2_linear_16049_340" x1="38" y1="27.3081" x2="38" y2="31.8081" gradientUnits="userSpaceOnUse">
<stop stop-color="#FDFBFB"/>
<stop offset="0.0001" stop-color="white"/>
<stop offset="1" stop-color="#F4F4F4"/>
</linearGradient>
<linearGradient id="paint3_linear_16049_340" x1="37.5" y1="41.0581" x2="37.5" y2="54.0581" gradientUnits="userSpaceOnUse">
<stop stop-color="#FDFBFB"/>
<stop offset="0.0001" stop-color="white"/>
<stop offset="1" stop-color="#F4F4F4"/>
</linearGradient>
</defs>
</svg>
