<svg width="49" height="48" viewBox="0 0 49 48" fill="none" xmlns="http://www.w3.org/2000/svg">
<path d="M29.79 22.75H18.21C15.47 22.75 13.25 20.52 13.25 17.78V10.37C13.25 9.00997 14.09 7.29997 15.17 6.45997L20.56 2.25997C22.18 0.999974 24.77 0.939974 26.45 2.11997L32.63 6.44997C33.82 7.27997 34.75 9.05997 34.75 10.51V17.79C34.75 20.52 32.53 22.75 29.79 22.75ZM21.48 3.43997L16.09 7.63997C15.38 8.19997 14.75 9.46997 14.75 10.37V17.78C14.75 19.69 16.3 21.25 18.21 21.25H29.79C31.7 21.25 33.25 19.7 33.25 17.79V10.51C33.25 9.54997 32.56 8.21997 31.77 7.67997L25.59 3.34997C24.45 2.54997 22.57 2.58997 21.48 3.43997Z" fill="#858585"/>
<path d="M24 18.75C23.59 18.75 23.25 18.41 23.25 18V15C23.25 14.59 23.59 14.25 24 14.25C24.41 14.25 24.75 14.59 24.75 15V18C24.75 18.41 24.41 18.75 24 18.75Z" fill="#858585"/>
<path d="M13.4735 30.636V39H12.3815V35.208H8.12147V39H7.02947V30.636H8.12147V34.308H12.3815V30.636H13.4735ZM18.2061 39.108C17.5901 39.108 17.0301 38.968 16.5261 38.688C16.0301 38.408 15.6381 38.012 15.3501 37.5C15.0701 36.98 14.9301 36.38 14.9301 35.7C14.9301 35.028 15.0741 34.436 15.3621 33.924C15.6581 33.404 16.0581 33.008 16.5621 32.736C17.0661 32.456 17.6301 32.316 18.2541 32.316C18.8781 32.316 19.4421 32.456 19.9461 32.736C20.4501 33.008 20.8461 33.4 21.1341 33.912C21.4301 34.424 21.5781 35.02 21.5781 35.7C21.5781 36.38 21.4261 36.98 21.1221 37.5C20.8261 38.012 20.4221 38.408 19.9101 38.688C19.3981 38.968 18.8301 39.108 18.2061 39.108ZM18.2061 38.148C18.5981 38.148 18.9661 38.056 19.3101 37.872C19.6541 37.688 19.9301 37.412 20.1381 37.044C20.3541 36.676 20.4621 36.228 20.4621 35.7C20.4621 35.172 20.3581 34.724 20.1501 34.356C19.9421 33.988 19.6701 33.716 19.3341 33.54C18.9981 33.356 18.6341 33.264 18.2421 33.264C17.8421 33.264 17.4741 33.356 17.1381 33.54C16.8101 33.716 16.5461 33.988 16.3461 34.356C16.1461 34.724 16.0461 35.172 16.0461 35.7C16.0461 36.236 16.1421 36.688 16.3341 37.056C16.5341 37.424 16.7981 37.7 17.1261 37.884C17.4541 38.06 17.8141 38.148 18.2061 38.148ZM30.9218 32.304C31.4338 32.304 31.8898 32.412 32.2898 32.628C32.6898 32.836 33.0058 33.152 33.2378 33.576C33.4698 34 33.5858 34.516 33.5858 35.124V39H32.5058V35.28C32.5058 34.624 32.3418 34.124 32.0138 33.78C31.6938 33.428 31.2578 33.252 30.7058 33.252C30.1378 33.252 29.6858 33.436 29.3498 33.804C29.0138 34.164 28.8458 34.688 28.8458 35.376V39H27.7658V35.28C27.7658 34.624 27.6018 34.124 27.2738 33.78C26.9538 33.428 26.5178 33.252 25.9658 33.252C25.3978 33.252 24.9458 33.436 24.6098 33.804C24.2738 34.164 24.1058 34.688 24.1058 35.376V39H23.0138V32.424H24.1058V33.372C24.3218 33.028 24.6098 32.764 24.9698 32.58C25.3378 32.396 25.7418 32.304 26.1818 32.304C26.7338 32.304 27.2218 32.428 27.6458 32.676C28.0698 32.924 28.3858 33.288 28.5938 33.768C28.7778 33.304 29.0818 32.944 29.5058 32.688C29.9298 32.432 30.4018 32.304 30.9218 32.304ZM41.3771 35.46C41.3771 35.668 41.3651 35.888 41.3411 36.12H36.0851C36.1251 36.768 36.3451 37.276 36.7451 37.644C37.1531 38.004 37.6451 38.184 38.2211 38.184C38.6931 38.184 39.0851 38.076 39.3971 37.86C39.7171 37.636 39.9411 37.34 40.0691 36.972H41.2451C41.0691 37.604 40.7171 38.12 40.1891 38.52C39.6611 38.912 39.0051 39.108 38.2211 39.108C37.5971 39.108 37.0371 38.968 36.5411 38.688C36.0531 38.408 35.6691 38.012 35.3891 37.5C35.1091 36.98 34.9691 36.38 34.9691 35.7C34.9691 35.02 35.1051 34.424 35.3771 33.912C35.6491 33.4 36.0291 33.008 36.5171 32.736C37.0131 32.456 37.5811 32.316 38.2211 32.316C38.8451 32.316 39.3971 32.452 39.8771 32.724C40.3571 32.996 40.7251 33.372 40.9811 33.852C41.2451 34.324 41.3771 34.86 41.3771 35.46ZM40.2491 35.232C40.2491 34.816 40.1571 34.46 39.9731 34.164C39.7891 33.86 39.5371 33.632 39.2171 33.48C38.9051 33.32 38.5571 33.24 38.1731 33.24C37.6211 33.24 37.1491 33.416 36.7571 33.768C36.3731 34.12 36.1531 34.608 36.0971 35.232H40.2491Z" fill="#858585"/>
</svg>
