<svg width="75" height="75" viewBox="0 0 75 75" fill="none" xmlns="http://www.w3.org/2000/svg">
<g filter="url(#filter0_d_16818_2522)">
<path d="M43.4023 17C41.4944 17.0001 40.116 18.5809 39.1738 20.3369C38.6573 21.2983 36.3428 21.2983 35.8262 20.3369C34.884 18.5809 33.5056 17.0001 31.5977 17H23C20.7909 17 19 15.2091 19 13H56C56 15.2091 54.2091 17 52 17H43.4023Z" fill="url(#paint0_linear_16818_2522)"/>
</g>
<path opacity="0.4" d="M46.04 32.8781L40.28 28.8481C38.71 27.7481 36.3 27.8081 34.79 28.9781L29.78 32.8881C28.78 33.6681 27.99 35.2681 27.99 36.5281V43.4281C27.99 45.9781 30.06 48.0581 32.61 48.0581H43.39C45.94 48.0581 48.01 45.9881 48.01 43.4381V36.6581C48.01 35.3081 47.14 33.6481 46.04 32.8781Z" fill="url(#paint1_linear_16818_2522)"/>
<path d="M38 44.8081C37.59 44.8081 37.25 44.4681 37.25 44.0581V41.0581C37.25 40.6481 37.59 40.3081 38 40.3081C38.41 40.3081 38.75 40.6481 38.75 41.0581V44.0581C38.75 44.4681 38.41 44.8081 38 44.8081Z" fill="url(#paint2_linear_16818_2522)"/>
<path d="M27.1588 56.6821V65.0581H25.4788V61.4941H21.8908V65.0581H20.2108V56.6821H21.8908V60.1261H25.4788V56.6821H27.1588ZM31.7644 65.1661C31.1244 65.1661 30.5484 65.0261 30.0364 64.7461C29.5244 64.4581 29.1204 64.0541 28.8244 63.5341C28.5364 63.0141 28.3924 62.4141 28.3924 61.7341C28.3924 61.0541 28.5404 60.4541 28.8364 59.9341C29.1404 59.4141 29.5524 59.0141 30.0724 58.7341C30.5924 58.4461 31.1724 58.3021 31.8124 58.3021C32.4524 58.3021 33.0324 58.4461 33.5524 58.7341C34.0724 59.0141 34.4804 59.4141 34.7764 59.9341C35.0804 60.4541 35.2324 61.0541 35.2324 61.7341C35.2324 62.4141 35.0764 63.0141 34.7644 63.5341C34.4604 64.0541 34.0444 64.4581 33.5164 64.7461C32.9964 65.0261 32.4124 65.1661 31.7644 65.1661ZM31.7644 63.7021C32.0684 63.7021 32.3524 63.6301 32.6164 63.4861C32.8884 63.3341 33.1044 63.1101 33.2644 62.8141C33.4244 62.5181 33.5044 62.1581 33.5044 61.7341C33.5044 61.1021 33.3364 60.6181 33.0004 60.2821C32.6724 59.9381 32.2684 59.7661 31.7884 59.7661C31.3084 59.7661 30.9044 59.9381 30.5764 60.2821C30.2564 60.6181 30.0964 61.1021 30.0964 61.7341C30.0964 62.3661 30.2524 62.8541 30.5644 63.1981C30.8844 63.5341 31.2844 63.7021 31.7644 63.7021ZM44.7207 58.3141C45.5367 58.3141 46.1927 58.5661 46.6887 59.0701C47.1927 59.5661 47.4447 60.2621 47.4447 61.1581V65.0581H45.7647V61.3861C45.7647 60.8661 45.6327 60.4701 45.3687 60.1981C45.1047 59.9181 44.7447 59.7781 44.2887 59.7781C43.8327 59.7781 43.4687 59.9181 43.1967 60.1981C42.9327 60.4701 42.8007 60.8661 42.8007 61.3861V65.0581H41.1207V61.3861C41.1207 60.8661 40.9887 60.4701 40.7247 60.1981C40.4607 59.9181 40.1007 59.7781 39.6447 59.7781C39.1807 59.7781 38.8127 59.9181 38.5407 60.1981C38.2767 60.4701 38.1447 60.8661 38.1447 61.3861V65.0581H36.4647V58.4101H38.1447V59.2141C38.3607 58.9341 38.6367 58.7141 38.9727 58.5541C39.3167 58.3941 39.6927 58.3141 40.1007 58.3141C40.6207 58.3141 41.0847 58.4261 41.4927 58.6501C41.9007 58.8661 42.2167 59.1781 42.4407 59.5861C42.6567 59.2021 42.9687 58.8941 43.3767 58.6621C43.7927 58.4301 44.2407 58.3141 44.7207 58.3141ZM55.2189 61.5901C55.2189 61.8301 55.2029 62.0461 55.1709 62.2381H50.3109C50.3509 62.7181 50.5189 63.0941 50.8149 63.3661C51.1109 63.6381 51.4749 63.7741 51.9069 63.7741C52.5309 63.7741 52.9749 63.5061 53.2389 62.9701H55.0509C54.8589 63.6101 54.4909 64.1381 53.9469 64.5541C53.4029 64.9621 52.7349 65.1661 51.9429 65.1661C51.3029 65.1661 50.7269 65.0261 50.2149 64.7461C49.7109 64.4581 49.3149 64.0541 49.0269 63.5341C48.7469 63.0141 48.6069 62.4141 48.6069 61.7341C48.6069 61.0461 48.7469 60.4421 49.0269 59.9221C49.3069 59.4021 49.6989 59.0021 50.2029 58.7221C50.7069 58.4421 51.2869 58.3021 51.9429 58.3021C52.5749 58.3021 53.1389 58.4381 53.6349 58.7101C54.1389 58.9821 54.5269 59.3701 54.7989 59.8741C55.0789 60.3701 55.2189 60.9421 55.2189 61.5901ZM53.4789 61.1101C53.4709 60.6781 53.3149 60.3341 53.0109 60.0781C52.7069 59.8141 52.3349 59.6821 51.8949 59.6821C51.4789 59.6821 51.1269 59.8101 50.8389 60.0661C50.5589 60.3141 50.3869 60.6621 50.3229 61.1101H53.4789Z" fill="url(#paint3_linear_16818_2522)"/>
<defs>
<filter id="filter0_d_16818_2522" x="0" y="0" width="75" height="46.058" filterUnits="userSpaceOnUse" color-interpolation-filters="sRGB">
<feFlood flood-opacity="0" result="BackgroundImageFix"/>
<feColorMatrix in="SourceAlpha" type="matrix" values="0 0 0 0 0 0 0 0 0 0 0 0 0 0 0 0 0 0 127 0" result="hardAlpha"/>
<feOffset dy="6"/>
<feGaussianBlur stdDeviation="9.5"/>
<feComposite in2="hardAlpha" operator="out"/>
<feColorMatrix type="matrix" values="0 0 0 0 0.956863 0 0 0 0 0 0 0 0 0 0.372549 0 0 0 1 0"/>
<feBlend mode="normal" in2="BackgroundImageFix" result="effect1_dropShadow_16818_2522"/>
<feBlend mode="normal" in="SourceGraphic" in2="effect1_dropShadow_16818_2522" result="shape"/>
</filter>
<linearGradient id="paint0_linear_16818_2522" x1="37.5" y1="13" x2="37.5" y2="21.0581" gradientUnits="userSpaceOnUse">
<stop stop-color="#FCB0CD"/>
<stop offset="0.0001" stop-color="#F85494"/>
<stop offset="1" stop-color="#F4005F"/>
</linearGradient>
<linearGradient id="paint1_linear_16818_2522" x1="38" y1="28.0603" x2="38" y2="48.0581" gradientUnits="userSpaceOnUse">
<stop stop-color="#FCB0CD"/>
<stop offset="0.0001" stop-color="#F85494"/>
<stop offset="1" stop-color="#F4005F"/>
</linearGradient>
<linearGradient id="paint2_linear_16818_2522" x1="38" y1="40.3081" x2="38" y2="44.8081" gradientUnits="userSpaceOnUse">
<stop stop-color="#FCB0CD"/>
<stop offset="0.0001" stop-color="#F85494"/>
<stop offset="1" stop-color="#F4005F"/>
</linearGradient>
<linearGradient id="paint3_linear_16818_2522" x1="37.5" y1="54.0581" x2="37.5" y2="67.0581" gradientUnits="userSpaceOnUse">
<stop stop-color="#FCB0CD"/>
<stop offset="0.0001" stop-color="#F85494"/>
<stop offset="1" stop-color="#F4005F"/>
</linearGradient>
</defs>
</svg>
