<svg width="75" height="62" viewBox="0 0 75 62" fill="none" xmlns="http://www.w3.org/2000/svg">
<g filter="url(#filter0_d_16049_403)">
<path d="M43.4023 4C41.4944 4.00006 40.116 5.58093 39.1738 7.33691C38.6573 8.29833 36.3428 8.29833 35.8262 7.33691C34.884 5.58093 33.5056 4.00007 31.5977 4H23C20.7909 4 19 2.20914 19 0H56C56 2.20914 54.2091 4 52 4H43.4023Z" fill="url(#paint0_linear_16049_403)"/>
</g>
<path opacity="0.4" d="M38 15C35.38 15 33.25 17.13 33.25 19.75C33.25 22.32 35.26 24.4 37.88 24.49C37.96 24.48 38.04 24.48 38.1 24.49C38.12 24.49 38.13 24.49 38.15 24.49C38.16 24.49 38.16 24.49 38.17 24.49C40.73 24.4 42.74 22.32 42.75 19.75C42.75 17.13 40.62 15 38 15Z" fill="url(#paint1_linear_16049_403)"/>
<path d="M43.08 27.15C40.29 25.29 35.74 25.29 32.93 27.15C31.66 28 30.96 29.15 30.96 30.38C30.96 31.61 31.66 32.75 32.92 33.59C34.32 34.53 36.16 35 38 35C39.84 35 41.68 34.53 43.08 33.59C44.34 32.74 45.04 31.6 45.04 30.36C45.03 29.13 44.34 27.99 43.08 27.15Z" fill="url(#paint2_linear_16049_403)"/>
<path d="M25.4223 46.2741C25.4223 46.7221 25.3143 47.1421 25.0983 47.5341C24.8903 47.9261 24.5583 48.2421 24.1023 48.4821C23.6543 48.7221 23.0863 48.8421 22.3983 48.8421H20.9943V52.0581H19.3143V43.6821H22.3983C23.0463 43.6821 23.5983 43.7941 24.0543 44.0181C24.5103 44.2421 24.8503 44.5501 25.0743 44.9421C25.3063 45.3341 25.4223 45.7781 25.4223 46.2741ZM22.3263 47.4861C22.7903 47.4861 23.1343 47.3821 23.3583 47.1741C23.5823 46.9581 23.6943 46.6581 23.6943 46.2741C23.6943 45.4581 23.2383 45.0501 22.3263 45.0501H20.9943V47.4861H22.3263ZM28.2951 46.4421C28.5111 46.0901 28.7911 45.8141 29.1351 45.6141C29.4871 45.4141 29.8871 45.3141 30.3351 45.3141V47.0781H29.8911C29.3631 47.0781 28.9631 47.2021 28.6911 47.4501C28.4271 47.6981 28.2951 48.1301 28.2951 48.7461V52.0581H26.6151V45.4101H28.2951V46.4421ZM34.4187 52.1661C33.7787 52.1661 33.2027 52.0261 32.6907 51.7461C32.1787 51.4581 31.7747 51.0541 31.4787 50.5341C31.1907 50.0141 31.0467 49.4141 31.0467 48.7341C31.0467 48.0541 31.1947 47.4541 31.4907 46.9341C31.7947 46.4141 32.2067 46.0141 32.7267 45.7341C33.2467 45.4461 33.8267 45.3021 34.4667 45.3021C35.1067 45.3021 35.6867 45.4461 36.2067 45.7341C36.7267 46.0141 37.1347 46.4141 37.4307 46.9341C37.7347 47.4541 37.8867 48.0541 37.8867 48.7341C37.8867 49.4141 37.7307 50.0141 37.4187 50.5341C37.1147 51.0541 36.6987 51.4581 36.1707 51.7461C35.6507 52.0261 35.0667 52.1661 34.4187 52.1661ZM34.4187 50.7021C34.7227 50.7021 35.0067 50.6301 35.2707 50.4861C35.5427 50.3341 35.7587 50.1101 35.9187 49.8141C36.0787 49.5181 36.1587 49.1581 36.1587 48.7341C36.1587 48.1021 35.9907 47.6181 35.6547 47.2821C35.3267 46.9381 34.9227 46.7661 34.4427 46.7661C33.9627 46.7661 33.5587 46.9381 33.2307 47.2821C32.9107 47.6181 32.7507 48.1021 32.7507 48.7341C32.7507 49.3661 32.9067 49.8541 33.2187 50.1981C33.5387 50.5341 33.9387 50.7021 34.4187 50.7021ZM42.167 46.7901H41.003V52.0581H39.299V46.7901H38.543V45.4101H39.299V45.0741C39.299 44.2581 39.531 43.6581 39.995 43.2741C40.459 42.8901 41.159 42.7101 42.095 42.7341V44.1501C41.687 44.1421 41.403 44.2101 41.243 44.3541C41.083 44.4981 41.003 44.7581 41.003 45.1341V45.4101H42.167V46.7901ZM44.1077 44.6181C43.8117 44.6181 43.5637 44.5261 43.3637 44.3421C43.1717 44.1501 43.0757 43.9141 43.0757 43.6341C43.0757 43.3541 43.1717 43.1221 43.3637 42.9381C43.5637 42.7461 43.8117 42.6501 44.1077 42.6501C44.4037 42.6501 44.6477 42.7461 44.8397 42.9381C45.0397 43.1221 45.1397 43.3541 45.1397 43.6341C45.1397 43.9141 45.0397 44.1501 44.8397 44.3421C44.6477 44.5261 44.4037 44.6181 44.1077 44.6181ZM44.9357 45.4101V52.0581H43.2557V45.4101H44.9357ZM48.2756 43.1781V52.0581H46.5956V43.1781H48.2756ZM56.1154 48.5901C56.1154 48.8301 56.0994 49.0461 56.0674 49.2381H51.2074C51.2474 49.7181 51.4154 50.0941 51.7114 50.3661C52.0074 50.6381 52.3714 50.7741 52.8034 50.7741C53.4274 50.7741 53.8714 50.5061 54.1354 49.9701H55.9474C55.7554 50.6101 55.3874 51.1381 54.8434 51.5541C54.2994 51.9621 53.6314 52.1661 52.8394 52.1661C52.1994 52.1661 51.6234 52.0261 51.1114 51.7461C50.6074 51.4581 50.2114 51.0541 49.9234 50.5341C49.6434 50.0141 49.5034 49.4141 49.5034 48.7341C49.5034 48.0461 49.6434 47.4421 49.9234 46.9221C50.2034 46.4021 50.5954 46.0021 51.0994 45.7221C51.6034 45.4421 52.1834 45.3021 52.8394 45.3021C53.4714 45.3021 54.0354 45.4381 54.5314 45.7101C55.0354 45.9821 55.4234 46.3701 55.6954 46.8741C55.9754 47.3701 56.1154 47.9421 56.1154 48.5901ZM54.3754 48.1101C54.3674 47.6781 54.2114 47.3341 53.9074 47.0781C53.6034 46.8141 53.2314 46.6821 52.7914 46.6821C52.3754 46.6821 52.0234 46.8101 51.7354 47.0661C51.4554 47.3141 51.2834 47.6621 51.2194 48.1101H54.3754Z" fill="url(#paint3_linear_16049_403)"/>
<defs>
<filter id="filter0_d_16049_403" x="0" y="-13" width="75" height="46.058" filterUnits="userSpaceOnUse" color-interpolation-filters="sRGB">
<feFlood flood-opacity="0" result="BackgroundImageFix"/>
<feColorMatrix in="SourceAlpha" type="matrix" values="0 0 0 0 0 0 0 0 0 0 0 0 0 0 0 0 0 0 127 0" result="hardAlpha"/>
<feOffset dy="6"/>
<feGaussianBlur stdDeviation="9.5"/>
<feComposite in2="hardAlpha" operator="out"/>
<feColorMatrix type="matrix" values="0 0 0 0 0.105882 0 0 0 0 0.105882 0 0 0 0 0.105882 0 0 0 1 0"/>
<feBlend mode="normal" in2="BackgroundImageFix" result="effect1_dropShadow_16049_403"/>
<feBlend mode="normal" in="SourceGraphic" in2="effect1_dropShadow_16049_403" result="shape"/>
</filter>
<linearGradient id="paint0_linear_16049_403" x1="37.5" y1="0" x2="37.5" y2="8.05809" gradientUnits="userSpaceOnUse">
<stop stop-color="#FDFBFB"/>
<stop offset="0.0001" stop-color="white"/>
<stop offset="1" stop-color="#F4F4F4"/>
</linearGradient>
<linearGradient id="paint1_linear_16049_403" x1="38" y1="15" x2="38" y2="24.49" gradientUnits="userSpaceOnUse">
<stop stop-color="#FDFBFB"/>
<stop offset="0.0001" stop-color="white"/>
<stop offset="1" stop-color="#F4F4F4"/>
</linearGradient>
<linearGradient id="paint2_linear_16049_403" x1="38" y1="25.755" x2="38" y2="35" gradientUnits="userSpaceOnUse">
<stop stop-color="#FDFBFB"/>
<stop offset="0.0001" stop-color="white"/>
<stop offset="1" stop-color="#F4F4F4"/>
</linearGradient>
<linearGradient id="paint3_linear_16049_403" x1="37.5" y1="41.0581" x2="37.5" y2="54.0581" gradientUnits="userSpaceOnUse">
<stop stop-color="#FDFBFB"/>
<stop offset="0.0001" stop-color="white"/>
<stop offset="1" stop-color="#F4F4F4"/>
</linearGradient>
</defs>
</svg>
