<svg width="49" height="48" viewBox="0 0 49 48" fill="none" xmlns="http://www.w3.org/2000/svg">
<path d="M25.1596 11.62C25.1296 11.62 25.1096 11.62 25.0796 11.62C25.0296 11.61 24.9596 11.61 24.8996 11.62C21.9996 11.53 19.8096 9.25 19.8096 6.44C19.8096 3.58 22.1396 1.25 24.9996 1.25C27.8596 1.25 30.1896 3.58 30.1896 6.44C30.1796 9.25 27.9796 11.53 25.1896 11.62C25.1796 11.62 25.1696 11.62 25.1596 11.62ZM24.9996 2.75C22.9696 2.75 21.3096 4.41 21.3096 6.44C21.3096 8.44 22.8696 10.05 24.8596 10.12C24.9096 10.11 25.0496 10.11 25.1796 10.12C27.1396 10.03 28.6796 8.42 28.6896 6.44C28.6896 4.41 27.0296 2.75 24.9996 2.75Z" fill="#1B1B1B"/>
<path d="M25.1696 22.55C23.2096 22.55 21.2396 22.05 19.7496 21.05C18.3596 20.13 17.5996 18.87 17.5996 17.5C17.5996 16.13 18.3596 14.86 19.7496 13.93C22.7496 11.94 27.6096 11.94 30.5896 13.93C31.9696 14.85 32.7396 16.11 32.7396 17.48C32.7396 18.85 31.9796 20.12 30.5896 21.05C29.0896 22.05 27.1296 22.55 25.1696 22.55ZM20.5796 15.19C19.6196 15.83 19.0996 16.65 19.0996 17.51C19.0996 18.36 19.6296 19.18 20.5796 19.81C23.0696 21.48 27.2696 21.48 29.7596 19.81C30.7196 19.17 31.2396 18.35 31.2396 17.49C31.2396 16.64 30.7096 15.82 29.7596 15.19C27.2696 13.53 23.0696 13.53 20.5796 15.19Z" fill="#1B1B1B"/>
<path d="M12.8168 33.084C12.8168 33.78 12.5768 34.36 12.0968 34.824C11.6248 35.28 10.9008 35.508 9.92478 35.508H8.31678V39H7.22478V30.636H9.92478C10.8688 30.636 11.5848 30.864 12.0728 31.32C12.5688 31.776 12.8168 32.364 12.8168 33.084ZM9.92478 34.608C10.5328 34.608 10.9808 34.476 11.2688 34.212C11.5568 33.948 11.7008 33.572 11.7008 33.084C11.7008 32.052 11.1088 31.536 9.92478 31.536H8.31678V34.608H9.92478ZM15.266 33.492C15.458 33.116 15.73 32.824 16.082 32.616C16.442 32.408 16.878 32.304 17.39 32.304V33.432H17.102C15.878 33.432 15.266 34.096 15.266 35.424V39H14.174V32.424H15.266V33.492ZM21.5186 39.108C20.9026 39.108 20.3426 38.968 19.8386 38.688C19.3426 38.408 18.9506 38.012 18.6626 37.5C18.3826 36.98 18.2426 36.38 18.2426 35.7C18.2426 35.028 18.3866 34.436 18.6746 33.924C18.9706 33.404 19.3706 33.008 19.8746 32.736C20.3786 32.456 20.9426 32.316 21.5666 32.316C22.1906 32.316 22.7546 32.456 23.2586 32.736C23.7626 33.008 24.1586 33.4 24.4466 33.912C24.7426 34.424 24.8906 35.02 24.8906 35.7C24.8906 36.38 24.7386 36.98 24.4346 37.5C24.1386 38.012 23.7346 38.408 23.2226 38.688C22.7106 38.968 22.1426 39.108 21.5186 39.108ZM21.5186 38.148C21.9106 38.148 22.2786 38.056 22.6226 37.872C22.9666 37.688 23.2426 37.412 23.4506 37.044C23.6666 36.676 23.7746 36.228 23.7746 35.7C23.7746 35.172 23.6706 34.724 23.4626 34.356C23.2546 33.988 22.9826 33.716 22.6466 33.54C22.3106 33.356 21.9466 33.264 21.5546 33.264C21.1546 33.264 20.7866 33.356 20.4506 33.54C20.1226 33.716 19.8586 33.988 19.6586 34.356C19.4586 34.724 19.3586 35.172 19.3586 35.7C19.3586 36.236 19.4546 36.688 19.6466 37.056C19.8466 37.424 20.1106 37.7 20.4386 37.884C20.7666 38.06 21.1266 38.148 21.5186 38.148ZM29.0023 33.324H27.6223V39H26.5303V33.324H25.6783V32.424H26.5303V31.956C26.5303 31.22 26.7183 30.684 27.0943 30.348C27.4783 30.004 28.0903 29.832 28.9303 29.832V30.744C28.4503 30.744 28.1103 30.84 27.9103 31.032C27.7183 31.216 27.6223 31.524 27.6223 31.956V32.424H29.0023V33.324ZM30.8396 31.356C30.6316 31.356 30.4556 31.284 30.3116 31.14C30.1676 30.996 30.0956 30.82 30.0956 30.612C30.0956 30.404 30.1676 30.228 30.3116 30.084C30.4556 29.94 30.6316 29.868 30.8396 29.868C31.0396 29.868 31.2076 29.94 31.3436 30.084C31.4876 30.228 31.5596 30.404 31.5596 30.612C31.5596 30.82 31.4876 30.996 31.3436 31.14C31.2076 31.284 31.0396 31.356 30.8396 31.356ZM31.3676 32.424V39H30.2756V32.424H31.3676ZM34.3207 30.12V39H33.2287V30.12H34.3207ZM42.1818 35.46C42.1818 35.668 42.1698 35.888 42.1458 36.12H36.8898C36.9298 36.768 37.1498 37.276 37.5498 37.644C37.9578 38.004 38.4498 38.184 39.0258 38.184C39.4978 38.184 39.8898 38.076 40.2018 37.86C40.5218 37.636 40.7458 37.34 40.8738 36.972H42.0498C41.8738 37.604 41.5218 38.12 40.9938 38.52C40.4658 38.912 39.8098 39.108 39.0258 39.108C38.4018 39.108 37.8418 38.968 37.3458 38.688C36.8578 38.408 36.4738 38.012 36.1938 37.5C35.9138 36.98 35.7738 36.38 35.7738 35.7C35.7738 35.02 35.9098 34.424 36.1818 33.912C36.4538 33.4 36.8338 33.008 37.3218 32.736C37.8178 32.456 38.3858 32.316 39.0258 32.316C39.6498 32.316 40.2018 32.452 40.6818 32.724C41.1618 32.996 41.5298 33.372 41.7858 33.852C42.0498 34.324 42.1818 34.86 42.1818 35.46ZM41.0538 35.232C41.0538 34.816 40.9618 34.46 40.7778 34.164C40.5938 33.86 40.3418 33.632 40.0218 33.48C39.7098 33.32 39.3618 33.24 38.9778 33.24C38.4258 33.24 37.9538 33.416 37.5618 33.768C37.1778 34.12 36.9578 34.608 36.9018 35.232H41.0538Z" fill="#1B1B1B"/>
</svg>
