<svg width="75" height="75" viewBox="0 0 75 75" fill="none" xmlns="http://www.w3.org/2000/svg">
<g filter="url(#filter0_d_16818_2578)">
<path d="M43.4023 17C41.4944 17.0001 40.116 18.5809 39.1738 20.3369C38.6573 21.2983 36.3428 21.2983 35.8262 20.3369C34.884 18.5809 33.5056 17.0001 31.5977 17H23C20.7909 17 19 15.2091 19 13H56C56 15.2091 54.2091 17 52 17H43.4023Z" fill="url(#paint0_linear_16818_2578)"/>
</g>
<path opacity="0.4" d="M38 28C35.38 28 33.25 30.13 33.25 32.75C33.25 35.32 35.26 37.4 37.88 37.49C37.96 37.48 38.04 37.48 38.1 37.49C38.12 37.49 38.13 37.49 38.15 37.49C38.16 37.49 38.16 37.49 38.17 37.49C40.73 37.4 42.74 35.32 42.75 32.75C42.75 30.13 40.62 28 38 28Z" fill="url(#paint1_linear_16818_2578)"/>
<path d="M43.08 40.15C40.29 38.29 35.74 38.29 32.93 40.15C31.66 41 30.96 42.15 30.96 43.38C30.96 44.61 31.66 45.75 32.92 46.59C34.32 47.53 36.16 48 38 48C39.84 48 41.68 47.53 43.08 46.59C44.34 45.74 45.04 44.6 45.04 43.36C45.03 42.13 44.34 40.99 43.08 40.15Z" fill="url(#paint2_linear_16818_2578)"/>
<path d="M25.4223 59.2741C25.4223 59.7221 25.3143 60.1421 25.0983 60.5341C24.8903 60.9261 24.5583 61.2421 24.1023 61.4821C23.6543 61.7221 23.0863 61.8421 22.3983 61.8421H20.9943V65.0581H19.3143V56.6821H22.3983C23.0463 56.6821 23.5983 56.7941 24.0543 57.0181C24.5103 57.2421 24.8503 57.5501 25.0743 57.9421C25.3063 58.3341 25.4223 58.7781 25.4223 59.2741ZM22.3263 60.4861C22.7903 60.4861 23.1343 60.3821 23.3583 60.1741C23.5823 59.9581 23.6943 59.6581 23.6943 59.2741C23.6943 58.4581 23.2383 58.0501 22.3263 58.0501H20.9943V60.4861H22.3263ZM28.2951 59.4421C28.5111 59.0901 28.7911 58.8141 29.1351 58.6141C29.4871 58.4141 29.8871 58.3141 30.3351 58.3141V60.0781H29.8911C29.3631 60.0781 28.9631 60.2021 28.6911 60.4501C28.4271 60.6981 28.2951 61.1301 28.2951 61.7461V65.0581H26.6151V58.4101H28.2951V59.4421ZM34.4187 65.1661C33.7787 65.1661 33.2027 65.0261 32.6907 64.7461C32.1787 64.4581 31.7747 64.0541 31.4787 63.5341C31.1907 63.0141 31.0467 62.4141 31.0467 61.7341C31.0467 61.0541 31.1947 60.4541 31.4907 59.9341C31.7947 59.4141 32.2067 59.0141 32.7267 58.7341C33.2467 58.4461 33.8267 58.3021 34.4667 58.3021C35.1067 58.3021 35.6867 58.4461 36.2067 58.7341C36.7267 59.0141 37.1347 59.4141 37.4307 59.9341C37.7347 60.4541 37.8867 61.0541 37.8867 61.7341C37.8867 62.4141 37.7307 63.0141 37.4187 63.5341C37.1147 64.0541 36.6987 64.4581 36.1707 64.7461C35.6507 65.0261 35.0667 65.1661 34.4187 65.1661ZM34.4187 63.7021C34.7227 63.7021 35.0067 63.6301 35.2707 63.4861C35.5427 63.3341 35.7587 63.1101 35.9187 62.8141C36.0787 62.5181 36.1587 62.1581 36.1587 61.7341C36.1587 61.1021 35.9907 60.6181 35.6547 60.2821C35.3267 59.9381 34.9227 59.7661 34.4427 59.7661C33.9627 59.7661 33.5587 59.9381 33.2307 60.2821C32.9107 60.6181 32.7507 61.1021 32.7507 61.7341C32.7507 62.3661 32.9067 62.8541 33.2187 63.1981C33.5387 63.5341 33.9387 63.7021 34.4187 63.7021ZM42.167 59.7901H41.003V65.0581H39.299V59.7901H38.543V58.4101H39.299V58.0741C39.299 57.2581 39.531 56.6581 39.995 56.2741C40.459 55.8901 41.159 55.7101 42.095 55.7341V57.1501C41.687 57.1421 41.403 57.2101 41.243 57.3541C41.083 57.4981 41.003 57.7581 41.003 58.1341V58.4101H42.167V59.7901ZM44.1077 57.6181C43.8117 57.6181 43.5637 57.5261 43.3637 57.3421C43.1717 57.1501 43.0757 56.9141 43.0757 56.6341C43.0757 56.3541 43.1717 56.1221 43.3637 55.9381C43.5637 55.7461 43.8117 55.6501 44.1077 55.6501C44.4037 55.6501 44.6477 55.7461 44.8397 55.9381C45.0397 56.1221 45.1397 56.3541 45.1397 56.6341C45.1397 56.9141 45.0397 57.1501 44.8397 57.3421C44.6477 57.5261 44.4037 57.6181 44.1077 57.6181ZM44.9357 58.4101V65.0581H43.2557V58.4101H44.9357ZM48.2756 56.1781V65.0581H46.5956V56.1781H48.2756ZM56.1154 61.5901C56.1154 61.8301 56.0994 62.0461 56.0674 62.2381H51.2074C51.2474 62.7181 51.4154 63.0941 51.7114 63.3661C52.0074 63.6381 52.3714 63.7741 52.8034 63.7741C53.4274 63.7741 53.8714 63.5061 54.1354 62.9701H55.9474C55.7554 63.6101 55.3874 64.1381 54.8434 64.5541C54.2994 64.9621 53.6314 65.1661 52.8394 65.1661C52.1994 65.1661 51.6234 65.0261 51.1114 64.7461C50.6074 64.4581 50.2114 64.0541 49.9234 63.5341C49.6434 63.0141 49.5034 62.4141 49.5034 61.7341C49.5034 61.0461 49.6434 60.4421 49.9234 59.9221C50.2034 59.4021 50.5954 59.0021 51.0994 58.7221C51.6034 58.4421 52.1834 58.3021 52.8394 58.3021C53.4714 58.3021 54.0354 58.4381 54.5314 58.7101C55.0354 58.9821 55.4234 59.3701 55.6954 59.8741C55.9754 60.3701 56.1154 60.9421 56.1154 61.5901ZM54.3754 61.1101C54.3674 60.6781 54.2114 60.3341 53.9074 60.0781C53.6034 59.8141 53.2314 59.6821 52.7914 59.6821C52.3754 59.6821 52.0234 59.8101 51.7354 60.0661C51.4554 60.3141 51.2834 60.6621 51.2194 61.1101H54.3754Z" fill="url(#paint3_linear_16818_2578)"/>
<defs>
<filter id="filter0_d_16818_2578" x="0" y="0" width="75" height="46.058" filterUnits="userSpaceOnUse" color-interpolation-filters="sRGB">
<feFlood flood-opacity="0" result="BackgroundImageFix"/>
<feColorMatrix in="SourceAlpha" type="matrix" values="0 0 0 0 0 0 0 0 0 0 0 0 0 0 0 0 0 0 127 0" result="hardAlpha"/>
<feOffset dy="6"/>
<feGaussianBlur stdDeviation="9.5"/>
<feComposite in2="hardAlpha" operator="out"/>
<feColorMatrix type="matrix" values="0 0 0 0 0.956863 0 0 0 0 0 0 0 0 0 0.372549 0 0 0 1 0"/>
<feBlend mode="normal" in2="BackgroundImageFix" result="effect1_dropShadow_16818_2578"/>
<feBlend mode="normal" in="SourceGraphic" in2="effect1_dropShadow_16818_2578" result="shape"/>
</filter>
<linearGradient id="paint0_linear_16818_2578" x1="37.5" y1="13" x2="37.5" y2="21.0581" gradientUnits="userSpaceOnUse">
<stop stop-color="#FCB0CD"/>
<stop offset="0.0001" stop-color="#F85494"/>
<stop offset="1" stop-color="#F4005F"/>
</linearGradient>
<linearGradient id="paint1_linear_16818_2578" x1="38" y1="28" x2="38" y2="37.49" gradientUnits="userSpaceOnUse">
<stop stop-color="#FCB0CD"/>
<stop offset="0.0001" stop-color="#F85494"/>
<stop offset="1" stop-color="#F4005F"/>
</linearGradient>
<linearGradient id="paint2_linear_16818_2578" x1="38" y1="38.755" x2="38" y2="48" gradientUnits="userSpaceOnUse">
<stop stop-color="#FCB0CD"/>
<stop offset="0.0001" stop-color="#F85494"/>
<stop offset="1" stop-color="#F4005F"/>
</linearGradient>
<linearGradient id="paint3_linear_16818_2578" x1="37.5" y1="54.0581" x2="37.5" y2="67.0581" gradientUnits="userSpaceOnUse">
<stop stop-color="#FCB0CD"/>
<stop offset="0.0001" stop-color="#F85494"/>
<stop offset="1" stop-color="#F4005F"/>
</linearGradient>
</defs>
</svg>
